<svg width="250" height="250" viewBox="0 0 250 250" fill="none" xmlns="http://www.w3.org/2000/svg">
<path d="M34.9869 202.141C34.9869 202.141 33.6816 199.723 34.5752 198.432C35.6447 196.885 38.3358 195.704 38.7577 197.48C39.1298 199.043 38.0413 202.255 38.0413 202.255L34.9869 202.141Z" fill="#9A8DE7"/>
<path d="M38.0411 202.769H38.022L34.9676 202.655C34.8771 202.653 34.7887 202.628 34.7115 202.58C34.6342 202.533 34.5709 202.467 34.5281 202.387C34.3816 202.111 33.1027 199.648 34.1457 198.138C34.9587 196.966 36.6962 195.866 37.9883 196.109C38.6387 196.233 39.0871 196.676 39.2497 197.359C39.6496 199.047 38.5655 202.281 38.5172 202.418C38.4835 202.518 38.4197 202.605 38.3346 202.668C38.2494 202.731 38.1469 202.767 38.0411 202.769ZM35.3103 201.641L37.6719 201.729C37.9927 200.674 38.5025 198.626 38.2578 197.599C38.1714 197.236 37.9795 197.16 37.8052 197.12C37.0463 196.973 35.6532 197.772 34.9954 198.732C34.4827 199.467 34.9676 200.901 35.3103 201.641Z" fill="#9A8DE7"/>
<path d="M154.279 222.337H94.9297L93.2339 167.268C93.2256 167.008 93.2697 166.748 93.3639 166.505C93.4581 166.262 93.6006 166.04 93.7822 165.853C93.9639 165.666 94.1814 165.517 94.4214 165.415C94.6614 165.313 94.9197 165.262 95.1806 165.262H154.028C154.289 165.262 154.547 165.313 154.787 165.415C155.027 165.517 155.245 165.666 155.426 165.853C155.608 166.04 155.751 166.262 155.845 166.505C155.939 166.748 155.983 167.008 155.975 167.268L154.279 222.337Z" fill="#9A8DE7"/>
<path d="M154.279 222.849H94.9301C94.7968 222.849 94.6693 222.797 94.5734 222.705C94.4776 222.612 94.4218 222.486 94.4176 222.352L92.7259 167.284C92.7151 166.955 92.7718 166.627 92.8901 166.32C93.0093 166.013 93.1884 165.732 93.4176 165.496C93.6476 165.26 93.9217 165.071 94.2251 164.943C94.5284 164.815 94.8542 164.748 95.1834 164.748H154.032C154.361 164.748 154.687 164.815 154.991 164.943C155.294 165.071 155.568 165.259 155.798 165.496C156.028 165.732 156.207 166.012 156.326 166.32C156.445 166.627 156.501 166.955 156.491 167.284L154.795 222.352C154.79 222.486 154.734 222.613 154.638 222.706C154.542 222.798 154.413 222.85 154.279 222.849ZM95.4284 221.824H153.783L155.463 167.254C155.468 167.061 155.436 166.87 155.367 166.691C155.298 166.511 155.193 166.348 155.059 166.21C154.925 166.072 154.765 165.962 154.588 165.887C154.411 165.812 154.221 165.774 154.028 165.774H95.1809C94.9884 165.774 94.7984 165.812 94.6209 165.887C94.4442 165.962 94.2843 166.072 94.1501 166.21C94.0168 166.348 93.9118 166.511 93.8426 166.691C93.7734 166.87 93.7409 167.061 93.7467 167.254L95.4284 221.824Z" fill="#9A8DE7"/>
<path d="M94.0442 222.337H155.117C155.6 222.336 156.078 222.43 156.524 222.614C156.971 222.799 157.377 223.069 157.718 223.41C158.06 223.751 158.331 224.156 158.516 224.603C158.701 225.049 158.796 225.527 158.795 226.009H90.4209V225.969C90.4209 225.007 90.8017 224.084 91.4809 223.403C92.1601 222.722 93.0817 222.339 94.0442 222.337Z" fill="#9A8DE7"/>
<path d="M158.795 226.522H90.4207C90.2849 226.522 90.1549 226.468 90.0582 226.372C89.9624 226.276 89.9082 226.145 89.9082 226.009V225.967C89.9099 224.868 90.3465 223.816 91.1232 223.039C91.8999 222.263 92.9524 221.825 94.0507 221.824H155.117C156.227 221.825 157.29 222.266 158.074 223.05C158.859 223.835 159.301 224.898 159.302 226.008C159.302 226.143 159.249 226.273 159.154 226.368C159.059 226.465 158.931 226.52 158.795 226.522ZM90.9749 225.497H158.234C158.112 224.758 157.732 224.086 157.161 223.601C156.59 223.117 155.866 222.85 155.117 222.849H94.0507C93.3057 222.85 92.5849 223.118 92.0199 223.603C91.454 224.088 91.0807 224.76 90.9674 225.497H90.9749Z" fill="#9A8DE7"/>
<path d="M130.589 181.277H105.57C105.215 181.277 104.927 181.566 104.927 181.921V206.027C104.927 206.382 105.215 206.67 105.57 206.67H130.589C130.944 206.67 131.232 206.382 131.232 206.027V181.921C131.232 181.566 130.944 181.277 130.589 181.277Z" fill="#FF7378"/>
<path d="M130.587 207.184H105.57C105.264 207.184 104.97 207.061 104.753 206.845C104.537 206.628 104.415 206.335 104.414 206.028V181.92C104.415 181.615 104.537 181.32 104.753 181.104C104.97 180.887 105.264 180.765 105.57 180.765H130.587C130.894 180.765 131.187 180.887 131.404 181.104C131.621 181.32 131.743 181.615 131.743 181.92V206.028C131.743 206.335 131.621 206.628 131.404 206.845C131.187 207.061 130.894 207.184 130.587 207.184ZM105.57 181.79C105.536 181.79 105.502 181.804 105.478 181.829C105.453 181.853 105.44 181.886 105.44 181.92V206.028C105.44 206.063 105.453 206.095 105.478 206.12C105.502 206.145 105.536 206.159 105.57 206.159H130.587C130.622 206.159 130.655 206.145 130.68 206.12C130.704 206.095 130.717 206.063 130.717 206.028V181.92C130.717 181.886 130.704 181.853 130.68 181.829C130.655 181.804 130.622 181.79 130.587 181.79H105.57Z" fill="#FF7378"/>
<path d="M149.595 169.168H126.206C125.92 169.168 125.688 169.4 125.688 169.685V191.049C125.688 191.335 125.92 191.566 126.206 191.566H149.595C149.881 191.566 150.113 191.335 150.113 191.049V169.685C150.113 169.4 149.881 169.168 149.595 169.168Z" fill="#84D7FF"/>
<path d="M149.596 192.077H126.206C125.934 192.077 125.674 191.97 125.481 191.777C125.289 191.585 125.18 191.324 125.18 191.052V169.684C125.18 169.412 125.289 169.152 125.481 168.959C125.674 168.767 125.934 168.658 126.206 168.658H149.596C149.868 168.658 150.129 168.767 150.321 168.959C150.513 169.152 150.621 169.412 150.621 169.684V191.049C150.622 191.184 150.595 191.317 150.544 191.442C150.493 191.567 150.417 191.681 150.322 191.776C150.227 191.872 150.114 191.947 149.989 191.999C149.864 192.051 149.73 192.077 149.596 192.077ZM126.206 169.681V191.049H149.6V169.681H126.206Z" fill="#84D7FF"/>
<path d="M137.846 132.746C137.714 132.746 137.587 132.695 137.492 132.604C137.397 132.512 137.34 132.388 137.335 132.257C137.055 125.906 137.105 119.692 137.515 109.332C137.565 108.089 137.632 106.383 138.627 105.148C139.261 104.363 140.135 103.918 140.97 103.487C141.373 103.292 141.764 103.074 142.143 102.836C143.523 101.932 144.384 100.453 144.391 98.9766C144.399 97.4182 143.366 95.9516 141.979 95.5666C141.768 95.5074 141.539 95.4699 141.303 95.4282C140.8 95.3432 140.278 95.2541 139.799 94.9616C138.574 94.2174 138.361 92.6716 138.315 91.2591C138.27 89.9232 138.315 88.0099 138.357 86.1599C138.4 84.3091 138.442 82.4255 138.4 81.1187C138.395 80.9827 138.445 80.8506 138.538 80.7512C138.631 80.6519 138.76 80.5936 138.895 80.5891C139.031 80.5846 139.164 80.6344 139.263 80.7274C139.362 80.8204 139.42 80.9491 139.425 81.0851C139.469 82.4211 139.425 84.3341 139.383 86.1849C139.34 88.0349 139.296 89.9191 139.339 91.2257C139.378 92.4207 139.526 93.5957 140.33 94.0849C140.645 94.2774 141.049 94.3457 141.476 94.4174C141.738 94.4582 141.997 94.5116 142.253 94.5791C144.066 95.0824 145.427 96.9774 145.417 98.9824C145.408 100.797 144.37 102.602 142.704 103.692C142.293 103.952 141.869 104.188 141.432 104.402C140.65 104.8 139.91 105.178 139.414 105.792C138.69 106.69 138.585 107.945 138.535 109.373C138.125 119.703 138.077 125.892 138.355 132.211C138.357 132.278 138.347 132.346 138.325 132.409C138.301 132.472 138.266 132.53 138.22 132.58C138.175 132.63 138.12 132.67 138.06 132.698C137.999 132.727 137.932 132.742 137.865 132.746H137.846Z" fill="#14142B"/>
<path d="M119.961 113.179C117.956 113.181 115.963 112.877 114.051 112.276C112.174 111.691 110.701 110.896 109.547 109.872C107.957 108.457 106.756 106.356 105.977 103.612C105.428 101.679 104.899 98.4239 104.719 95.8748C104.709 95.7389 104.754 95.6039 104.843 95.5014C104.932 95.3981 105.059 95.3348 105.195 95.3256C105.332 95.3156 105.466 95.3606 105.568 95.4498C105.672 95.5389 105.735 95.6656 105.745 95.8014C105.921 98.2914 106.435 101.457 106.967 103.333C107.69 105.881 108.789 107.823 110.232 109.105C111.275 110.032 112.627 110.75 114.364 111.302C117.883 112.402 121.648 112.441 125.189 111.413C125.32 111.375 125.46 111.389 125.58 111.454C125.7 111.519 125.789 111.629 125.827 111.759C125.867 111.89 125.852 112.031 125.787 112.15C125.722 112.27 125.612 112.359 125.482 112.398C123.688 112.92 121.829 113.183 119.961 113.179Z" fill="#14142B"/>
<path d="M111.76 133.977C111.624 133.975 111.494 133.919 111.399 133.822C111.304 133.725 111.252 133.594 111.253 133.458C111.253 132.957 111.278 132.198 111.304 131.236C111.422 126.778 111.641 118.479 111.174 110.765C111.166 110.628 111.212 110.495 111.302 110.393C111.392 110.291 111.519 110.229 111.655 110.221C111.791 110.212 111.925 110.258 112.027 110.348C112.129 110.438 112.191 110.566 112.199 110.702C112.669 118.466 112.45 126.79 112.331 131.264C112.306 132.221 112.288 132.977 112.282 133.47C112.28 133.537 112.266 133.604 112.239 133.667C112.213 133.728 112.174 133.785 112.126 133.832C112.078 133.879 112.02 133.916 111.958 133.941C111.894 133.966 111.828 133.978 111.76 133.977Z" fill="#14142B"/>
<path d="M139.057 101.626C138.921 101.626 138.79 101.572 138.694 101.476C138.597 101.38 138.543 101.249 138.543 101.113C138.543 100.977 138.597 100.847 138.694 100.751C138.79 100.655 138.921 100.601 139.057 100.601C139.812 100.601 140.99 99.7347 141.204 98.8264C141.238 98.6972 141.322 98.5864 141.436 98.5172C141.551 98.4489 141.687 98.4272 141.817 98.4581C141.948 98.4889 142.061 98.5689 142.132 98.6822C142.204 98.7947 142.229 98.9314 142.202 99.0622C141.892 100.371 140.367 101.617 139.064 101.626H139.057Z" fill="#14142B"/>
<path d="M119.938 98.6879H119.898C118.638 98.5887 117.7 98.1388 117.182 97.3871C116.997 97.1029 116.882 96.7779 116.847 96.4404C116.812 96.1029 116.858 95.7621 116.981 95.4462C117.069 95.1946 117.219 94.9687 117.417 94.7896C117.614 94.6104 117.853 94.4838 118.112 94.4204C118.322 94.3796 118.536 94.3637 118.749 94.3737C118.912 94.3921 119.076 94.3729 119.23 94.3163C119.418 94.1946 119.413 93.6796 119.412 93.5104L119.368 88.1112C119.367 88.0437 119.379 87.9771 119.405 87.9146C119.43 87.8521 119.468 87.7954 119.514 87.7471C119.562 87.6987 119.618 87.6604 119.68 87.6346C119.742 87.6079 119.808 87.5946 119.876 87.5938C120.011 87.5938 120.141 87.6471 120.237 87.7421C120.333 87.8379 120.388 87.9671 120.388 88.1021L120.433 93.5021C120.433 93.8754 120.444 94.7504 119.782 95.1779C119.43 95.4046 119.049 95.4004 118.734 95.3988C118.6 95.3921 118.466 95.3996 118.333 95.4213C118.238 95.4479 118.153 95.4979 118.083 95.5663C118.013 95.6346 117.96 95.7196 117.932 95.8138C117.87 95.9738 117.846 96.1463 117.862 96.3171C117.878 96.4879 117.933 96.6537 118.023 96.7996C118.448 97.4179 119.318 97.6079 119.974 97.6596C120.041 97.6621 120.108 97.6779 120.168 97.7062C120.23 97.7346 120.285 97.7746 120.331 97.8238C120.377 97.8729 120.412 97.9313 120.435 97.9946C120.458 98.0579 120.469 98.1246 120.467 98.1921C120.464 98.2596 120.448 98.3254 120.42 98.3871C120.392 98.4479 120.352 98.5029 120.303 98.5487C120.253 98.5946 120.195 98.6304 120.132 98.6537C120.069 98.6771 120.002 98.6879 119.934 98.6854L119.938 98.6879Z" fill="#14142B"/>
<path d="M128.057 95.442C128.022 95.442 127.986 95.4387 127.951 95.432L125.201 94.8545C125.071 94.8237 124.957 94.7437 124.886 94.6312C124.814 94.5179 124.789 94.382 124.817 94.2512C124.844 94.1204 124.921 94.0054 125.032 93.9304C125.143 93.8554 125.278 93.827 125.41 93.8512L128.162 94.4287C128.285 94.4554 128.393 94.5262 128.467 94.6287C128.542 94.7304 128.576 94.8562 128.562 94.982C128.55 95.107 128.491 95.2237 128.398 95.3087C128.305 95.3937 128.183 95.4412 128.057 95.442Z" fill="#FF7378"/>
<path d="M106.302 104.52C106.267 104.52 106.23 104.517 106.194 104.51C105.462 104.353 103.027 103.631 102.18 100.867C102.152 100.74 102.172 100.608 102.238 100.496C102.304 100.383 102.41 100.301 102.534 100.263C102.658 100.227 102.792 100.238 102.908 100.295C103.024 100.353 103.115 100.453 103.161 100.573C103.826 102.74 105.651 103.357 106.41 103.514C106.533 103.541 106.642 103.613 106.717 103.714C106.79 103.817 106.824 103.943 106.811 104.068C106.797 104.194 106.738 104.311 106.644 104.395C106.551 104.48 106.429 104.527 106.302 104.528V104.52Z" fill="#14142B"/>
<path d="M126.408 91.1886H126.427C126.557 91.1878 126.662 91.0819 126.661 90.9511L126.645 88.5428C126.644 88.4128 126.538 88.3078 126.408 88.3086H126.389C126.258 88.3094 126.153 88.4161 126.154 88.5461L126.17 90.9544C126.171 91.0853 126.278 91.1894 126.408 91.1886Z" fill="#14142B"/>
<path d="M126.402 92.0729C126.108 92.0721 125.826 91.9554 125.617 91.7487C125.409 91.5412 125.291 91.2596 125.289 90.9654L125.272 88.5554C125.272 88.4096 125.299 88.2646 125.355 88.1287C125.41 87.9937 125.491 87.8704 125.593 87.7662C125.697 87.6621 125.818 87.5787 125.953 87.5221C126.087 87.4654 126.232 87.4354 126.378 87.4346H126.407C126.701 87.4346 126.982 87.5512 127.191 87.7579C127.4 87.9654 127.518 88.2471 127.52 88.5404L127.536 90.9504C127.537 91.2462 127.422 91.5296 127.215 91.7404C127.007 91.9504 126.725 92.0704 126.43 92.0729H126.402Z" fill="#14142B"/>
<path d="M112.072 95.5466C111.945 95.5474 111.823 95.5008 111.728 95.4166C111.633 95.3324 111.573 95.2158 111.56 95.0899C111.546 94.9641 111.579 94.8374 111.653 94.7341C111.728 94.6316 111.837 94.5599 111.961 94.5324L114.7 93.9208C114.833 93.8908 114.973 93.9149 115.087 93.9883C115.202 94.0608 115.283 94.1766 115.313 94.3091C115.343 94.4424 115.318 94.5816 115.246 94.6966C115.173 94.8116 115.057 94.8924 114.924 94.9224L112.18 95.5349C112.144 95.5424 112.108 95.5458 112.072 95.5466Z" fill="#FF7378"/>
<path d="M113.654 88.4004H113.635C113.504 88.4012 113.4 88.5071 113.401 88.6379L113.416 91.0462C113.417 91.1762 113.523 91.2812 113.653 91.2804H113.673C113.803 91.2796 113.908 91.1729 113.907 91.0429L113.891 88.6346C113.89 88.5046 113.784 88.3996 113.654 88.4004Z" fill="#14142B"/>
<path d="M113.655 92.1551C113.361 92.1551 113.079 92.0392 112.87 91.8317C112.661 91.6251 112.542 91.3434 112.541 91.0492L112.524 88.6393C112.523 88.4934 112.551 88.3476 112.606 88.2126C112.661 88.0768 112.743 87.9534 112.846 87.8493C112.948 87.7451 113.071 87.6617 113.206 87.6051C113.341 87.5484 113.486 87.5184 113.631 87.5176H113.658C113.953 87.5184 114.236 87.6351 114.444 87.8434C114.653 88.0509 114.771 88.3334 114.773 88.6276L114.787 91.0376C114.789 91.3326 114.674 91.6168 114.466 91.8268C114.259 92.0368 113.976 92.1559 113.681 92.1584H113.655V92.1551Z" fill="#14142B"/>
<path d="M111.791 111.23L111.89 114.903C111.89 114.903 118.644 113.548 123.914 112.259C123.914 112.259 117.71 114.381 111.791 111.23Z" fill="#14142B"/>
<path d="M111.89 115.415C111.774 115.416 111.661 115.377 111.571 115.305C111.512 115.258 111.465 115.199 111.431 115.132C111.398 115.065 111.38 114.992 111.377 114.917L111.277 111.244C111.275 111.154 111.296 111.064 111.339 110.986C111.381 110.907 111.444 110.84 111.521 110.793C111.597 110.746 111.685 110.719 111.774 110.717C111.864 110.714 111.953 110.735 112.032 110.777C115.888 112.829 119.901 112.557 122.086 112.17C122.672 112.033 123.237 111.897 123.791 111.76C123.856 111.741 123.924 111.735 123.991 111.742C124.057 111.749 124.122 111.769 124.181 111.801C124.241 111.833 124.293 111.876 124.336 111.929C124.378 111.98 124.41 112.041 124.429 112.105C124.448 112.17 124.455 112.238 124.448 112.305C124.441 112.372 124.421 112.437 124.389 112.496C124.357 112.555 124.313 112.608 124.261 112.65C124.209 112.692 124.149 112.725 124.084 112.744C123.446 112.948 122.794 113.105 122.133 113.212C117.313 114.336 112.057 115.394 111.996 115.41C111.961 115.415 111.926 115.418 111.89 115.415ZM112.33 112.066L112.39 114.279C113.229 114.107 114.88 113.766 116.841 113.344C115.281 113.15 113.758 112.72 112.326 112.066H112.33Z" fill="#14142B"/>
<path d="M51.7751 182.076C51.3977 182.077 51.0242 182 50.6785 181.848C50.3329 181.696 50.0227 181.474 49.768 181.196C49.5132 180.917 49.3195 180.589 49.1992 180.231C49.0788 179.873 49.0347 179.494 49.0693 179.118C49.0816 178.982 49.1473 178.856 49.2522 178.769C49.3569 178.681 49.4922 178.64 49.6282 178.651C49.7642 178.664 49.8897 178.73 49.9772 178.835C50.0647 178.939 50.1071 179.075 50.0948 179.211C50.0673 179.512 50.1215 179.816 50.2517 180.091C50.3819 180.364 50.5834 180.598 50.8349 180.767C51.0865 180.937 51.379 181.035 51.6817 181.053C51.9845 181.07 52.2864 181.006 52.5559 180.867C52.6158 180.835 52.6815 180.815 52.7491 180.81C52.8167 180.803 52.8848 180.81 52.9496 180.83C53.0144 180.85 53.0745 180.884 53.1265 180.927C53.1784 180.971 53.2212 181.025 53.2523 181.085C53.2835 181.146 53.3023 181.211 53.3077 181.279C53.3132 181.346 53.3052 181.415 53.2842 181.479C53.2632 181.544 53.2295 181.603 53.1852 181.655C53.1409 181.706 53.0869 181.748 53.0262 181.779C52.6392 181.977 52.21 182.079 51.7751 182.076Z" fill="#14142B"/>
<path d="M30.6109 195.954C30.5171 195.953 30.4251 195.927 30.3449 195.879C30.2646 195.831 30.1991 195.761 30.1553 195.678L26.3962 188.48C26.3381 188.364 26.326 188.23 26.3624 188.106C26.3989 187.981 26.481 187.876 26.5924 187.809C26.7038 187.743 26.836 187.721 26.9627 187.749C27.0894 187.776 27.201 187.85 27.2751 187.956L27.6868 188.566C27.7528 188.664 27.7829 188.782 27.7718 188.9L31.0664 195.199C31.1073 195.277 31.1272 195.365 31.1244 195.453C31.1217 195.541 31.0962 195.626 31.0505 195.702C31.0049 195.777 30.9406 195.84 30.8639 195.883C30.7871 195.926 30.7004 195.949 30.6124 195.949L30.6109 195.954Z" fill="#14142B"/>
<path d="M34.1736 192.562C34.0446 192.562 33.9203 192.514 33.8257 192.426C33.7312 192.338 33.6733 192.218 33.6637 192.089L31.626 165.616C31.6157 165.48 31.6598 165.346 31.7487 165.241C31.8376 165.138 31.9639 165.075 32.0999 165.064C32.2359 165.054 32.3704 165.098 32.4738 165.187C32.5772 165.276 32.6412 165.402 32.6514 165.538L34.6892 192.01C34.6993 192.146 34.6552 192.28 34.5665 192.383C34.4777 192.486 34.3517 192.551 34.216 192.561L34.1736 192.562Z" fill="#14142B"/>
<path d="M39.1281 192.414C39.0846 192.414 39.0413 192.409 38.9992 192.398C38.8676 192.364 38.7551 192.279 38.6862 192.161C38.6173 192.044 38.5976 191.905 38.6314 191.773L39.7609 187.407C39.7949 187.275 39.8798 187.162 39.997 187.093C40.1142 187.025 40.254 187.005 40.3858 187.039C40.5174 187.072 40.6303 187.157 40.6993 187.275C40.7685 187.392 40.7882 187.531 40.7542 187.663L39.6247 192.03C39.5959 192.14 39.5316 192.237 39.4418 192.307C39.3519 192.376 39.2416 192.414 39.1281 192.414Z" fill="#14142B"/>
<path d="M83.7232 69.1438C83.6791 69.1434 83.6357 69.1379 83.5924 69.1277C81.0407 68.464 79.0689 66.1215 78.6792 63.5374C75.0915 64.2376 71.2797 63.3586 68.5886 61.0748C65.058 58.0774 63.8274 52.783 65.7246 48.7603C67.2437 45.5374 70.6307 43.1216 74.7839 42.2909C77.9877 41.6508 81.2796 41.9525 84.2432 42.4624C81.8055 39.7155 80.8591 35.6312 81.9959 32.1285C83.3144 28.0529 87.3857 24.9941 91.6649 24.8564C95.9441 24.7187 100.202 27.5094 101.785 31.4927C101.835 31.6192 101.832 31.7604 101.778 31.8852C101.725 32.0101 101.623 32.1084 101.497 32.1585C101.371 32.2086 101.229 32.2064 101.104 32.1525C100.979 32.0985 100.881 31.9971 100.831 31.8707C99.4082 28.2713 95.5699 25.75 91.6999 25.8745C87.8291 25.9991 84.1624 28.7591 82.9687 32.4376C81.7747 36.1161 83.1269 40.5066 86.1841 42.8754C86.2757 42.9463 86.3407 43.0459 86.3682 43.1581C86.3957 43.2704 86.3849 43.3888 86.3366 43.4939C86.2891 43.5992 86.2066 43.685 86.1041 43.7376C86.0007 43.7903 85.8832 43.8065 85.7699 43.7838C82.4926 43.1289 78.647 42.5561 74.9846 43.29C71.1464 44.0563 68.0318 46.2624 66.6504 49.1909C64.9437 52.8094 66.0644 57.5779 69.2507 60.2851C71.7412 62.3976 75.2834 63.1902 78.6075 62.4987C78.6075 62.3288 78.6207 62.1574 78.6382 61.9859C78.7715 60.6954 79.3428 59.7021 80.2087 59.2611C80.5295 59.1113 80.883 59.0451 81.2363 59.0689C81.5896 59.0928 81.9311 59.2058 82.2288 59.3974C82.4708 59.5394 82.67 59.7439 82.8053 59.9897C82.9407 60.2354 83.0072 60.5131 82.998 60.7934C82.9731 61.3384 82.6552 62.1119 81.2825 62.7214C80.7616 62.9499 80.2257 63.1422 79.6783 63.2971C79.9713 65.5253 81.6561 67.5631 83.8507 68.1314C83.9716 68.1625 84.0766 68.2366 84.1474 68.3399C84.2174 68.4432 84.2474 68.5684 84.2316 68.6924C84.2157 68.8162 84.1557 68.9301 84.0624 69.0127C83.9682 69.0953 83.8482 69.1409 83.7232 69.1409V69.1438ZM81.0759 60.0918C80.9374 60.0896 80.8004 60.1203 80.676 60.1811C79.8967 60.5796 79.7047 61.6549 79.6593 62.0988C79.6593 62.1456 79.6505 62.1925 79.6476 62.2453C80.0628 62.1171 80.4702 61.965 80.8679 61.7896C81.3616 61.5729 81.952 61.2183 81.9725 60.7539C81.9709 60.655 81.9429 60.5583 81.8914 60.4738C81.8398 60.3893 81.7667 60.3201 81.6795 60.2734C81.5007 60.1537 81.2911 60.0881 81.0759 60.0844V60.0918Z" fill="#14142B"/>
<path d="M164.069 61.2502C163.917 61.2501 163.764 61.2343 163.615 61.2034C163.547 61.1918 163.482 61.1666 163.424 61.1295C163.367 61.0922 163.317 61.0437 163.277 60.9869C163.239 60.93 163.212 60.8659 163.198 60.7984C163.185 60.7308 163.185 60.6613 163.199 60.5939C163.213 60.5265 163.241 60.4626 163.28 60.4059C163.319 60.3493 163.369 60.3012 163.427 60.2644C163.486 60.2276 163.551 60.203 163.619 60.1919C163.687 60.1808 163.756 60.1835 163.823 60.1999C164.118 60.2609 164.426 60.2206 164.695 60.0856C164.964 59.9506 165.181 59.7286 165.308 59.4557C165.436 59.1827 165.468 58.8746 165.399 58.5812C165.331 58.2877 165.165 58.0261 164.929 57.8383C164.844 57.7711 164.783 57.6787 164.754 57.5744C164.725 57.4701 164.729 57.3593 164.767 57.2578C164.805 57.1563 164.873 57.0694 164.964 57.0095C165.054 56.9496 165.161 56.9196 165.269 56.9242C167.71 57.0296 170.206 55.4856 171.202 53.253C172.198 51.0204 171.681 48.133 169.972 46.3852C168.262 44.6376 165.386 44.0574 163.133 45.0038C163.016 45.0526 162.884 45.0558 162.764 45.0131C162.644 44.9703 162.545 44.8845 162.485 44.7723C162.425 44.6601 162.408 44.5297 162.439 44.4062C162.47 44.2827 162.546 44.1751 162.651 44.1043C165.066 42.5016 169.158 39.1029 169.446 34.3461C169.72 29.8047 165.818 25.2194 160.927 24.3316C157.142 23.6446 152.87 24.966 149.552 27.7494C149.864 28.6619 149.874 29.6513 149.577 30.5695C149.333 31.28 148.742 31.9026 148.112 32.1165C147.905 32.1924 147.682 32.2186 147.463 32.1932C147.244 32.1677 147.033 32.0913 146.848 31.97C146.677 31.8569 146.532 31.7075 146.425 31.5323C146.317 31.3571 146.25 31.1604 146.227 30.9562C146.125 30.13 146.649 29.2129 147.132 28.6767C147.513 28.2498 147.917 27.8426 148.34 27.4564C147.947 26.6903 147.348 26.0479 146.612 25.6003C144.608 24.4136 142.253 24.8063 141.028 25.1461C136.742 26.3328 133.372 30.2457 132.833 34.6596C132.828 34.7289 132.809 34.7963 132.777 34.858C132.745 34.9196 132.701 34.9741 132.647 35.0181C132.593 35.0622 132.532 35.0949 132.465 35.1143C132.398 35.1336 132.328 35.1393 132.259 35.1309C132.191 35.1224 132.124 35.1001 132.064 35.0652C132.004 35.0303 131.952 34.9836 131.911 34.9279C131.869 34.8722 131.839 34.8086 131.823 34.7411C131.807 34.6736 131.805 34.6036 131.817 34.5351C132.402 29.7198 136.08 25.4523 140.752 24.1573C143.139 23.4966 145.406 23.6958 147.134 24.7169C147.969 25.2156 148.657 25.9256 149.129 26.7752C150.443 25.7075 151.91 24.8415 153.479 24.2056C156.017 23.1801 158.657 22.8872 161.116 23.3266C163.642 23.7852 166.097 25.2033 167.855 27.2206C169.697 29.3345 170.627 31.888 170.476 34.4121C170.231 38.4495 167.546 41.5465 165.156 43.5301C166.18 43.4822 167.202 43.6481 168.158 44.0171C169.115 44.3861 169.983 44.9501 170.71 45.6732C172.734 47.7418 173.323 51.0321 172.146 53.6749C171.104 56.0071 168.767 57.6523 166.246 57.9233C166.413 58.2842 166.485 58.6817 166.456 59.0782C166.427 59.4748 166.297 59.8575 166.08 60.1902C165.862 60.523 165.563 60.7948 165.212 60.9802C164.86 61.1657 164.467 61.2586 164.069 61.2502ZM148.7 28.5068C148.417 28.7793 148.143 29.063 147.878 29.358C147.457 29.8282 147.184 30.445 147.231 30.8229C147.234 30.882 147.252 30.9394 147.282 30.9903C147.312 31.0413 147.354 31.0843 147.404 31.1159C147.457 31.1511 147.519 31.1725 147.582 31.1781C147.647 31.1837 147.711 31.1735 147.77 31.1481C148.104 31.0353 148.462 30.6441 148.601 30.2384C148.788 29.6806 148.822 29.0825 148.7 28.5068Z" fill="#14142B"/>
<path d="M164.781 75.2772C164.683 75.2771 164.586 75.2716 164.488 75.2611C164.352 75.2463 164.227 75.1781 164.142 75.0716C164.057 74.965 164.017 74.8286 164.031 74.6926C164.046 74.5567 164.114 74.4321 164.221 74.3464C164.327 74.2607 164.463 74.2208 164.599 74.2356C164.875 74.2572 165.152 74.221 165.412 74.1291C165.672 74.0372 165.911 73.8918 166.112 73.7022C166.312 73.5127 166.471 73.2831 166.577 73.0285C166.684 72.7737 166.736 72.4996 166.73 72.2235C166.724 71.9475 166.661 71.6757 166.543 71.4257C166.426 71.1758 166.257 70.9532 166.049 70.7723C165.841 70.5915 165.597 70.4563 165.332 70.3756C165.068 70.2948 164.79 70.2703 164.516 70.3036C164.449 70.3148 164.38 70.3126 164.314 70.2971C164.248 70.2815 164.186 70.253 164.131 70.2131C164.076 70.1731 164.029 70.1227 163.993 70.0646C163.958 70.0066 163.935 69.9421 163.925 69.8748C163.914 69.8076 163.917 69.7391 163.934 69.6731C163.951 69.6071 163.98 69.5452 164.021 69.4907C164.062 69.4363 164.112 69.3906 164.172 69.3561C164.23 69.3216 164.295 69.2991 164.362 69.2899C164.999 69.1818 165.653 69.2845 166.227 69.5823C166.8 69.8802 167.26 70.357 167.537 70.9402C167.815 71.5235 167.895 72.1814 167.764 72.814C167.633 73.4466 167.3 74.0192 166.815 74.4451C166.264 74.9665 165.539 75.2633 164.781 75.2772Z" fill="#14142B"/>
<path d="M104.557 28.3368C104.433 28.3363 104.315 28.2916 104.223 28.2109C104.129 28.1303 104.069 28.0189 104.051 27.8973C103.908 26.9708 104.037 26.0224 104.423 25.1683C104.809 24.314 105.437 23.591 106.228 23.0878C107.019 22.5844 107.939 22.3226 108.877 22.3344C109.814 22.346 110.728 22.6308 111.507 23.1537C111.615 23.2311 111.69 23.3479 111.714 23.4794C111.738 23.6109 111.71 23.7465 111.635 23.8575C111.561 23.9685 111.446 24.0459 111.315 24.0735C111.184 24.101 111.048 24.0764 110.935 24.0049C110.322 23.5928 109.602 23.3685 108.863 23.3594C108.124 23.3504 107.399 23.557 106.776 23.9539C106.153 24.3509 105.658 24.9209 105.355 25.5943C105.051 26.2675 104.949 27.0149 105.063 27.7449C105.074 27.8177 105.07 27.892 105.049 27.9628C105.028 28.0334 104.993 28.0989 104.945 28.1546C104.897 28.2103 104.838 28.2549 104.77 28.2853C104.703 28.3158 104.63 28.3313 104.557 28.3309V28.3368Z" fill="#14142B"/>
<path d="M135.247 53.0515C135.153 53.0519 135.06 53.0262 134.979 52.9771C134.899 52.928 134.833 52.8575 134.79 52.7734C134.747 52.6894 134.728 52.595 134.735 52.5009C134.742 52.4067 134.776 52.3164 134.831 52.2399L141.315 43.2363C141.395 43.1259 141.515 43.0517 141.649 43.03C141.784 43.0083 141.921 43.0409 142.031 43.1205C142.141 43.2002 142.216 43.3204 142.238 43.4547C142.26 43.589 142.226 43.7265 142.147 43.8369L135.663 52.8391C135.616 52.905 135.553 52.9587 135.481 52.9956C135.409 53.0325 135.328 53.0517 135.247 53.0515Z" fill="#14142B"/>
<path d="M144.917 57.4694C144.81 57.4692 144.705 57.4351 144.617 57.3718C144.531 57.3087 144.466 57.2196 144.432 57.1172C144.398 57.0149 144.397 56.9045 144.43 56.8018C144.462 56.6991 144.527 56.6092 144.613 56.545L150.842 51.9318C150.897 51.8917 150.957 51.8627 151.023 51.8463C151.088 51.83 151.157 51.8267 151.223 51.8367C151.29 51.8466 151.354 51.8696 151.412 51.9042C151.469 51.9389 151.52 51.9847 151.56 52.0388C151.6 52.093 151.629 52.1545 151.646 52.2198C151.662 52.2852 151.665 52.3532 151.655 52.4198C151.645 52.4865 151.622 52.5506 151.587 52.6083C151.552 52.6662 151.507 52.7165 151.453 52.7567L145.222 57.3683C145.135 57.4346 145.027 57.4701 144.917 57.4694Z" fill="#14142B"/>
<path d="M129.965 50.6846C129.929 50.6843 129.893 50.6803 129.858 50.6729C129.725 50.6444 129.609 50.5644 129.535 50.4504C129.461 50.3364 129.436 50.1978 129.464 50.0649L129.832 48.3407C129.846 48.2748 129.873 48.2123 129.911 48.1568C129.949 48.1013 129.998 48.0538 130.054 48.0172C130.111 47.9805 130.174 47.9553 130.24 47.9431C130.307 47.9308 130.374 47.9318 130.44 47.9458C130.506 47.9599 130.568 47.9868 130.624 48.025C130.68 48.0632 130.727 48.1119 130.763 48.1684C130.8 48.2249 130.826 48.2882 130.838 48.3544C130.85 48.4207 130.849 48.4887 130.835 48.5545L130.466 50.2862C130.44 50.3995 130.376 50.5008 130.285 50.5732C130.194 50.6456 130.081 50.6848 129.965 50.6846Z" fill="#14142B"/>
<path d="M111.399 53.4261C111.278 53.426 111.161 53.383 111.068 53.3047C110.976 53.2264 110.914 53.1178 110.894 52.9982L108.401 38.1802C108.383 38.0481 108.417 37.9142 108.496 37.8067C108.574 37.6993 108.693 37.6268 108.823 37.6047C108.955 37.5827 109.09 37.6127 109.2 37.6883C109.309 37.764 109.385 37.8795 109.412 38.0102L111.913 52.8269C111.934 52.9602 111.902 53.0963 111.823 53.2059C111.745 53.3156 111.626 53.3899 111.493 53.4128C111.463 53.4197 111.431 53.4242 111.399 53.4261Z" fill="#14142B"/>
<path d="M105.779 53.9079C105.695 53.9083 105.614 53.8882 105.54 53.8497C105.467 53.8111 105.404 53.7552 105.357 53.6868L103.908 51.5948C103.869 51.5393 103.842 51.4769 103.828 51.411C103.814 51.3451 103.812 51.277 103.824 51.2106C103.836 51.1443 103.861 51.0808 103.898 51.0241C103.934 50.9673 103.981 50.9183 104.037 50.8798C104.092 50.8414 104.154 50.8142 104.22 50.7998C104.286 50.7855 104.354 50.7843 104.421 50.7963C104.487 50.8083 104.551 50.8332 104.608 50.8696C104.664 50.9061 104.714 50.9533 104.752 51.0088L106.203 53.1023C106.258 53.1793 106.289 53.2698 106.296 53.3638C106.302 53.4579 106.282 53.5518 106.238 53.6352C106.194 53.7186 106.128 53.7882 106.047 53.8363C105.965 53.8844 105.873 53.9093 105.779 53.9079Z" fill="#14142B"/>
<path d="M138.029 109.354C142.823 109.626 152.264 108.73 152.264 108.73C148.978 98.9596 149.808 86.9688 148.089 80.964C146.371 74.9591 142.908 68.169 137.674 64.7585C132.439 61.3481 119.994 59.7235 115.041 65.3621C115.849 66.6689 115.719 68.0137 114.855 68.9615C115.734 71.5516 114.612 73.3755 113.408 74.5475C114.899 77.1698 133.012 87.243 138.872 86.7421L138.969 91.998C139.014 93.3638 139.276 94.748 140.639 94.6355C144.32 94.3421 145.334 97.5646 144.919 100.023C144.469 102.705 140.378 104.383 139.633 105.077C139.193 105.48 138.201 106.878 138.213 107.632C138.244 109.615 138.029 109.354 138.029 109.354Z" fill="#14142B"/>
<path d="M140.154 109.919C139.422 109.919 138.744 109.905 138.129 109.872C138.037 109.885 137.942 109.874 137.856 109.84C137.768 109.806 137.692 109.75 137.632 109.679C137.569 109.601 137.53 109.508 137.52 109.409C137.509 109.31 137.527 109.21 137.572 109.12C137.595 109.076 137.623 109.036 137.657 109C137.703 108.55 137.717 108.097 137.698 107.645C137.682 106.645 138.838 105.118 139.281 104.708C139.632 104.428 140.006 104.179 140.4 103.964C141.787 103.133 144.109 101.743 144.412 99.943C144.61 98.7705 144.48 97.1463 143.522 96.0996C142.858 95.3679 141.902 95.0571 140.677 95.1521C140.432 95.1813 140.185 95.1588 139.95 95.0863C139.715 95.0138 139.498 94.893 139.312 94.7321C138.611 94.1046 138.485 92.9521 138.454 92.0155L138.367 87.2721C134.424 87.2413 127.265 83.8046 124.267 82.2722C119.325 79.7466 113.855 76.3684 112.962 74.8009C112.907 74.7022 112.884 74.5877 112.9 74.4753C112.917 74.3629 112.969 74.259 113.051 74.1798C114.582 72.6885 115.013 71.036 114.369 69.1256C114.339 69.0391 114.334 68.9462 114.352 68.8568C114.372 68.7674 114.414 68.6846 114.476 68.6173C115.208 67.8086 115.261 66.6923 114.605 65.6317C114.547 65.5383 114.521 65.4287 114.53 65.3192C114.539 65.2097 114.583 65.1061 114.656 65.0237C116.979 62.378 121.102 61.0039 126.267 61.1548C130.601 61.2807 135.187 62.5275 137.953 64.3293C144.506 68.5982 147.569 77.2855 148.582 80.8219C149.314 83.3521 149.579 86.828 149.9 90.848C150.34 96.493 150.847 102.891 152.755 108.565C152.78 108.639 152.788 108.717 152.778 108.794C152.769 108.87 152.742 108.945 152.699 109.01C152.657 109.074 152.601 109.129 152.534 109.169C152.467 109.208 152.393 109.233 152.316 109.24C151.977 109.271 145.098 109.919 140.154 109.919ZM138.703 108.87C142.787 109.008 149.492 108.46 151.577 108.284C149.793 102.65 149.305 96.4388 148.873 90.9363C148.561 86.9688 148.287 83.5421 147.596 81.112C146.616 77.6855 143.658 69.2765 137.394 65.1951C132.665 62.1187 120.693 60.2304 115.67 65.4427C116.306 66.704 116.216 68.0489 115.428 69.0831C116.014 71.099 115.551 72.9931 114.079 74.6002C115.175 75.8264 119.262 78.5703 124.735 81.3669C131.107 84.6188 136.382 86.4405 138.827 86.2305C138.897 86.2246 138.967 86.233 139.033 86.2555C139.1 86.278 139.161 86.3138 139.213 86.3604C139.265 86.4079 139.307 86.4646 139.337 86.5288C139.366 86.5921 139.382 86.6613 139.383 86.7313L139.478 91.9896C139.492 92.3705 139.532 93.5521 139.996 93.9671C140.077 94.0371 140.174 94.0871 140.278 94.1155C140.382 94.1438 140.492 94.1488 140.597 94.1296C142.132 94.0096 143.403 94.4521 144.277 95.4088C145.485 96.7271 145.661 98.703 145.423 100.114C145.042 102.379 142.467 103.923 140.927 104.845C140.597 105.026 140.281 105.231 139.979 105.458C139.572 105.838 138.715 107.108 138.724 107.63C138.732 108.15 138.725 108.565 138.703 108.87Z" fill="#14142B"/>
<path d="M48.3107 186.318C48.0542 186.323 47.7993 186.275 47.5622 186.177C47.3249 186.08 47.1105 185.934 46.9322 185.75C46.2891 185.099 46.2788 184.196 46.27 183.405C46.27 183.278 46.27 183.15 46.27 183.026C46.2027 181.024 45.3061 178.255 44.5867 176.03C44.4125 175.489 44.2469 174.979 44.1033 174.509C41.3287 165.457 43.7239 157.26 46.7257 149.75C51.0443 138.948 60.1374 123.062 70.4581 108.292C70.5032 108.228 70.5626 108.174 70.6317 108.136C70.7007 108.098 70.7777 108.076 70.8566 108.073C70.9351 108.069 71.0134 108.084 71.0854 108.115C71.1573 108.147 71.2209 108.195 71.2712 108.255C77.2578 115.323 85.7385 119.81 94.9493 120.783C95.0327 120.791 95.1118 120.82 95.1818 120.866C95.251 120.912 95.3085 120.975 95.3477 121.048C95.3877 121.121 95.4093 121.203 95.4102 121.286C95.411 121.37 95.3918 121.453 95.3535 121.527C95.1968 121.833 79.5672 152.305 78.7542 154.185C78.24 155.374 78.2517 156.192 78.4802 156.45C78.6824 156.679 79.1878 156.573 79.4706 156.49C79.5351 156.47 79.6028 156.464 79.6697 156.471C79.7367 156.478 79.8017 156.498 79.861 156.53C79.9202 156.562 79.9726 156.605 80.0151 156.658C80.0576 156.71 80.0893 156.77 80.1086 156.835C80.1277 156.9 80.1341 156.967 80.1272 157.034C80.1202 157.101 80.1002 157.166 80.0682 157.225C80.0362 157.285 79.9927 157.337 79.9405 157.379C79.8882 157.421 79.8281 157.454 79.7635 157.473C78.6208 157.81 78.0187 157.473 77.7126 157.13C77.1368 156.48 77.1735 155.258 77.8137 153.778C78.5813 152.001 91.7452 126.315 94.1027 121.719C85.131 120.586 76.8827 116.212 70.9122 109.42C60.7893 123.976 51.9102 139.527 47.672 150.13C44.7421 157.455 42.3982 165.455 45.0776 174.204C45.2241 174.665 45.3837 175.172 45.5566 175.709C46.2891 177.995 47.2164 180.836 47.2882 182.986C47.2882 183.118 47.2882 183.255 47.2882 183.39C47.2955 184.05 47.3028 184.673 47.6544 185.027C48.2814 185.661 49.4227 185.065 50.7382 184.281L50.7865 184.254C53.1466 182.847 55.9139 182.592 58.5933 182.35C59.2072 182.292 59.8429 182.234 60.4567 182.162C63.5991 181.795 66.9026 181.587 70.0962 181.388C77.1442 180.949 83.8027 180.528 88.3835 178.523C88.5085 178.468 88.6493 178.465 88.776 178.515C88.9027 178.565 89.0043 178.663 89.0585 178.788C89.1135 178.913 89.116 179.054 89.066 179.18C89.016 179.307 88.9185 179.409 88.7935 179.463C84.0468 181.539 77.3024 181.962 70.1607 182.41C66.9802 182.61 63.6914 182.816 60.5769 183.181C59.9499 183.255 59.3082 183.313 58.6871 183.37C56.1234 183.608 53.4718 183.852 51.3095 185.139L51.2627 185.166C50.4422 185.655 49.3289 186.318 48.3107 186.318Z" fill="#14142B"/>
<path d="M91.2767 128.855H91.2459C86.5492 128.583 81.7325 127.212 77.3171 124.889C72.9288 122.588 69.0614 119.408 65.9563 115.547C65.8716 115.441 65.8327 115.305 65.848 115.17C65.8634 115.034 65.9318 114.911 66.0383 114.826C66.1448 114.742 66.2805 114.702 66.4157 114.718C66.5508 114.733 66.6744 114.802 66.7591 114.908C72.6819 122.347 82.0885 127.299 91.3059 127.832C91.4418 127.836 91.5709 127.894 91.6642 127.992C91.7576 128.092 91.8084 128.223 91.8043 128.359C91.8001 128.496 91.7426 128.624 91.6434 128.717C91.5451 128.812 91.4126 128.862 91.2767 128.857V128.855Z" fill="#14142B"/>
<path d="M65.4551 137.163H65.4449C63.7734 137.128 62.6454 135.475 62.5589 133.965C62.4754 132.519 63.0936 131.181 63.7309 129.94C65.5224 126.465 67.5795 123.135 69.8837 119.977C69.9229 119.921 69.9727 119.874 70.0305 119.838C70.0882 119.801 70.1525 119.777 70.2199 119.765C70.2871 119.755 70.356 119.757 70.4224 119.773C70.4888 119.789 70.5513 119.817 70.6064 119.858C70.6615 119.898 70.708 119.949 70.7431 120.007C70.7783 120.065 70.8015 120.13 70.8112 120.198C70.821 120.265 70.8172 120.335 70.8001 120.4C70.783 120.466 70.7528 120.528 70.7115 120.582C68.44 123.7 66.4124 126.987 64.6465 130.415C64.0708 131.533 63.514 132.724 63.583 133.912C63.6445 134.971 64.415 136.121 65.4654 136.144C65.6014 136.145 65.7313 136.2 65.8265 136.297C65.9216 136.395 65.9744 136.525 65.973 136.661C65.9716 136.797 65.9163 136.927 65.8192 137.022C65.7221 137.117 65.5911 137.17 65.4551 137.169V137.163Z" fill="#14142B"/>
<path d="M184.174 159.592C184.085 159.591 183.996 159.568 183.918 159.523C181.351 158.039 178.54 153.318 175.567 148.321C172.838 143.74 170.017 139.002 167.349 136.734C161.741 131.968 153.191 129.604 141.938 129.703C137.597 134.663 130.815 137.733 124.19 137.733C120.896 137.713 117.644 136.998 114.645 135.635C111.646 134.272 108.97 132.291 106.789 129.823C102.065 130.016 93.4664 130.441 87.3647 137.08C87.3197 137.131 87.2647 137.172 87.2031 137.201C87.1422 137.23 87.0756 137.247 87.0072 137.25C86.9397 137.253 86.8722 137.243 86.8081 137.22C86.7439 137.197 86.6856 137.162 86.6356 137.115C86.5856 137.069 86.5456 137.014 86.5172 136.952C86.4881 136.89 86.4731 136.823 86.4706 136.756C86.4681 136.688 86.4789 136.62 86.5031 136.557C86.5272 136.493 86.5639 136.435 86.6106 136.386C93.0706 129.353 102.073 128.989 106.911 128.791H106.994C107.071 128.788 107.149 128.803 107.221 128.833C107.292 128.865 107.356 128.912 107.406 128.972C109.491 131.383 112.066 133.32 114.961 134.654C117.856 135.988 121.002 136.688 124.19 136.707C130.608 136.707 137.168 133.7 141.308 128.86C141.356 128.804 141.414 128.76 141.481 128.729C141.546 128.698 141.619 128.682 141.691 128.681C153.318 128.535 162.169 130.988 168.01 135.952C170.808 138.329 173.673 143.142 176.445 147.795C179.216 152.448 182.097 157.283 184.432 158.635C184.53 158.693 184.606 158.78 184.648 158.884C184.691 158.988 184.698 159.104 184.669 159.213C184.64 159.322 184.576 159.418 184.486 159.487C184.396 159.556 184.287 159.593 184.174 159.593V159.592Z" fill="#14142B"/>
<path d="M125.778 155.76C125.217 155.763 124.66 155.654 124.14 155.442C124.017 155.388 123.918 155.289 123.868 155.164C123.817 155.039 123.818 154.9 123.868 154.775C123.92 154.651 124.018 154.552 124.143 154.498C124.266 154.446 124.406 154.444 124.531 154.494C125.983 155.094 127.823 154.557 128.723 153.269C129.499 152.154 129.59 150.693 129.618 149.168C129.692 145.035 129.545 140.902 129.178 136.786C129.173 136.718 129.179 136.65 129.2 136.586C129.22 136.522 129.253 136.462 129.296 136.409C129.339 136.358 129.393 136.315 129.453 136.283C129.513 136.253 129.578 136.233 129.646 136.228C129.713 136.222 129.781 136.228 129.845 136.249C129.909 136.269 129.969 136.302 130.022 136.345C130.073 136.389 130.116 136.442 130.148 136.502C130.178 136.562 130.198 136.628 130.203 136.695C130.572 140.848 130.718 145.018 130.643 149.187C130.613 150.809 130.505 152.508 129.563 153.857C128.721 155.061 127.243 155.76 125.778 155.76Z" fill="#14142B"/>
<path d="M118.031 199.573H118.011C117.883 199.569 117.761 199.525 117.662 199.445C117.562 199.366 117.492 199.257 117.46 199.133C117.288 198.492 117.102 197.833 116.923 197.195C116.087 194.222 115.222 191.148 115.157 188.058C115.107 185.714 116.433 184.311 117.704 184.189C118.742 184.09 120.102 184.83 120.517 187.244C121.196 191.189 118.612 199.094 118.589 199.172C118.551 199.289 118.476 199.391 118.375 199.463C118.275 199.535 118.155 199.573 118.031 199.573ZM117.904 185.215H117.802C116.977 185.294 116.147 186.373 116.182 188.041C116.244 191 117.092 194.011 117.911 196.922C117.958 197.09 118.007 197.26 118.057 197.432C118.79 194.86 119.962 190.022 119.511 187.423C119.271 186.047 118.655 185.208 117.904 185.208V185.215Z" fill="#14142B"/>
<path d="M141.617 175.818H134.714C134.578 175.818 134.447 175.764 134.352 175.667C134.256 175.571 134.202 175.44 134.202 175.304C134.202 175.169 134.256 175.039 134.352 174.942C134.447 174.846 134.578 174.792 134.714 174.792H141.617C141.753 174.792 141.883 174.846 141.98 174.942C142.076 175.039 142.13 175.169 142.13 175.304C142.13 175.44 142.076 175.571 141.98 175.667C141.883 175.764 141.753 175.818 141.617 175.818Z" fill="#14142B"/>
<path d="M131.455 179.87C131.319 179.875 131.187 179.826 131.087 179.734C130.987 179.641 130.928 179.513 130.923 179.377C130.917 179.241 130.966 179.108 131.059 179.009C131.151 178.909 131.279 178.85 131.415 178.845C135.964 178.482 140.53 178.385 145.091 178.551C145.227 178.556 145.355 178.615 145.448 178.715C145.541 178.814 145.59 178.946 145.585 179.082C145.58 179.218 145.522 179.347 145.422 179.44C145.323 179.532 145.19 179.581 145.055 179.576C140.533 179.413 136.006 179.511 131.496 179.87H131.455Z" fill="#14142B"/>
<path d="M135.479 183.471C135.343 183.473 135.212 183.422 135.113 183.328C135.016 183.234 134.959 183.104 134.956 182.968C134.953 182.832 135.005 182.701 135.099 182.602C135.193 182.505 135.323 182.448 135.458 182.446L140.439 182.239C140.507 182.236 140.574 182.246 140.638 182.27C140.701 182.293 140.758 182.328 140.808 182.374C140.858 182.42 140.898 182.475 140.927 182.536C140.955 182.596 140.971 182.663 140.973 182.731C140.976 182.797 140.966 182.865 140.943 182.928C140.919 182.991 140.884 183.05 140.838 183.099C140.793 183.149 140.738 183.189 140.677 183.217C140.615 183.246 140.549 183.261 140.482 183.264L135.501 183.471H135.479Z" fill="#14142B"/>
<path d="M159.372 223.332C159.291 223.333 159.211 223.313 159.138 223.275C159.078 223.244 159.025 223.202 158.982 223.15C158.938 223.099 158.906 223.039 158.885 222.975C158.865 222.911 158.857 222.844 158.863 222.777C158.868 222.71 158.887 222.644 158.918 222.585C161.363 217.843 166.932 217.75 169.37 218.761C169.925 218.991 170.478 219.251 171.015 219.503C172.717 220.299 174.324 221.053 176.107 221.001C178.387 220.939 180.171 219.613 182.059 218.218C182.882 217.585 183.738 216.998 184.626 216.46C187.453 214.814 191.045 214.24 194.378 214.804C194.782 214.097 195.29 213.455 195.886 212.9C197.579 211.333 201.47 209.134 208.519 212.021C209.398 212.383 210.218 212.742 211.01 213.09C214.476 214.619 217.47 215.939 223.052 215.939C223.187 215.939 223.318 215.993 223.414 216.089C223.511 216.184 223.564 216.315 223.564 216.451C223.564 216.587 223.511 216.718 223.414 216.814C223.318 216.91 223.187 216.964 223.052 216.964C217.255 216.964 214.168 215.604 210.6 214.034C209.816 213.689 209.006 213.331 208.136 212.974C201.613 210.301 198.102 212.255 196.588 213.656C196.15 214.061 195.765 214.519 195.442 215.021C196.072 215.177 196.689 215.377 197.29 215.62C198.48 216.105 200.032 217.168 200.492 218.567C200.603 218.888 200.642 219.229 200.604 219.567C200.567 219.904 200.454 220.229 200.274 220.518C199.576 221.659 197.846 222.184 196.338 221.714C195.694 221.506 195.11 221.148 194.632 220.669C194.156 220.189 193.801 219.603 193.597 218.958C193.333 218.142 193.433 216.969 193.917 215.763C190.902 215.323 187.691 215.861 185.147 217.342C184.293 217.862 183.469 218.429 182.677 219.039C180.743 220.477 178.744 221.961 176.141 222.034C174.117 222.093 172.322 221.25 170.586 220.437C170.061 220.191 169.517 219.938 168.984 219.717C166.85 218.838 161.976 218.912 159.836 223.063C159.791 223.146 159.723 223.214 159.642 223.263C159.56 223.31 159.467 223.334 159.372 223.332ZM194.935 215.947C194.454 217.048 194.382 218.065 194.567 218.635C194.722 219.123 194.992 219.565 195.352 219.929C195.711 220.292 196.152 220.565 196.637 220.726C197.683 221.053 198.944 220.709 199.394 219.974C199.497 219.813 199.561 219.63 199.581 219.44C199.602 219.25 199.577 219.058 199.512 218.879C199.232 218.028 198.157 217.077 196.897 216.564C196.261 216.305 195.605 216.1 194.935 215.947Z" fill="#14142B"/>
<path d="M192.695 124.329C192.667 124.328 192.639 124.326 192.611 124.321C192.478 124.299 192.359 124.225 192.279 124.116C192.2 124.006 192.167 123.869 192.188 123.736C193.524 115.678 193.643 109.294 193.706 105.863V105.643C193.713 105.212 193.636 104.785 193.48 104.383C191.105 98.1539 192.485 94.1022 193.944 89.8114C194.756 87.4264 195.595 84.9605 195.918 81.9002C196.358 77.725 197.613 74.9401 199.644 73.6246C201.339 72.5259 203.452 72.6474 204.794 73.9176C206.439 75.4836 206.405 78.166 204.71 81.096C203.264 83.5864 202.416 86.8222 203.779 88.4322C203.823 88.4839 203.855 88.5439 203.876 88.608C203.896 88.6722 203.904 88.7397 203.899 88.8064C203.893 88.8739 203.874 88.9389 203.843 88.9989C203.812 89.0589 203.769 89.1122 203.718 89.1555C203.667 89.1989 203.607 89.2322 203.543 89.2522C203.479 89.273 203.411 89.2805 203.344 89.2747C203.277 89.2689 203.211 89.2505 203.152 89.2197C203.092 89.1889 203.039 89.1464 202.995 89.0947C201.196 86.9672 202.317 83.1791 203.823 80.5817C205.267 78.0913 205.365 75.8821 204.088 74.6647C203.094 73.7213 201.498 73.6466 200.201 74.486C198.444 75.6258 197.344 78.1572 196.938 82.01C196.604 85.183 195.745 87.7055 194.916 90.1439C193.451 94.4314 192.195 98.1347 194.439 104.02C194.642 104.544 194.741 105.101 194.733 105.663V105.883C194.669 109.341 194.549 115.776 193.202 123.902C193.181 124.021 193.119 124.131 193.026 124.208C192.934 124.286 192.816 124.329 192.695 124.329Z" fill="#14142B"/>
<path d="M208.651 125.212C208.515 125.212 208.385 125.158 208.288 125.062C208.193 124.966 208.138 124.836 208.138 124.699C208.138 122.64 207.992 118.425 207.858 114.706C207.798 113.017 207.743 111.422 207.702 110.098C207.678 109.314 207.702 105.282 210.639 102.861C212.104 101.645 213.488 100.342 214.82 99.0816C217.466 96.5782 219.963 94.2116 222.826 92.8774C223.108 92.7474 223.431 92.6066 223.773 92.4599C227.038 91.0507 229.883 89.5432 228.85 86.6249C228.5 85.6332 227.945 84.9649 227.201 84.6382C226.408 84.2916 225.387 84.3457 224.328 84.8041C222.883 85.4232 221.228 86.9224 220.239 87.8174C219.25 88.7124 217.656 89.4491 216.693 89.9007C216.421 90.0266 216.187 90.1366 216.049 90.2099C215.99 90.2449 215.923 90.2682 215.855 90.2774C215.787 90.2866 215.717 90.2824 215.65 90.2632C215.583 90.2449 215.521 90.2132 215.467 90.1699C215.413 90.1266 215.368 90.0732 215.335 90.0124C215.302 89.9507 215.282 89.8841 215.276 89.8149C215.269 89.7457 215.278 89.6766 215.299 89.6107C215.32 89.5449 215.355 89.4841 215.401 89.4316C215.446 89.3799 215.502 89.3374 215.564 89.3074C215.727 89.2191 215.961 89.1099 216.258 88.9707C217.17 88.5441 218.697 87.8307 219.55 87.0574C220.893 85.8441 222.447 84.4949 223.923 83.8624C225.242 83.2951 226.56 83.2379 227.613 83.6991C228.611 84.1391 229.37 85.0307 229.809 86.2824C231.248 90.3474 226.818 92.2591 224.173 93.4007C223.837 93.5466 223.521 93.6816 223.251 93.8074C220.541 95.0716 218.1 97.3807 215.518 99.8257C214.174 101.099 212.783 102.413 211.285 103.652C208.722 105.767 208.699 109.366 208.72 110.067C208.761 111.386 208.817 112.982 208.875 114.669C209.007 118.397 209.157 122.622 209.157 124.699C209.157 124.834 209.103 124.963 209.009 125.059C208.914 125.155 208.786 125.21 208.651 125.212Z" fill="#14142B"/>
<path d="M88.7065 120.624C88.6332 120.624 88.5599 120.608 88.4932 120.576C88.4315 120.548 88.3765 120.508 88.3315 120.459C88.2857 120.409 88.2498 120.352 88.2265 120.288C88.2032 120.225 88.1923 120.158 88.1957 120.091C88.1982 120.023 88.214 119.958 88.2424 119.897C91.319 113.243 96.1432 105.318 98.1165 102.788C98.7457 101.973 99.5932 101.353 100.562 101.003C102.004 100.486 103.345 99.0326 104.244 97.0134C105.144 94.9951 105.494 92.6192 105.189 90.5501C104.052 82.8153 106.912 78.9464 109.509 77.061L109.87 76.8016C111.628 75.5316 113.825 73.9523 114.376 72.0112C114.94 70.0335 114.255 67.4215 112.334 66.6802C110.255 65.8803 107.397 67.0728 105.836 68.6886C100.913 73.778 99.574 79.2511 98.499 83.6459C97.9848 85.7501 97.5407 87.5676 96.8007 89.1001C96.1574 90.4284 91.6907 95.5459 86.5199 101.485C82.91 105.635 79.1671 109.922 76.3177 113.392C76.2756 113.446 76.2231 113.491 76.1633 113.525C76.1034 113.558 76.0375 113.579 75.9694 113.587C75.9013 113.594 75.8324 113.588 75.7667 113.568C75.701 113.549 75.6399 113.517 75.5871 113.473C75.5342 113.429 75.4906 113.375 75.4588 113.315C75.427 113.254 75.4078 113.188 75.4021 113.119C75.3965 113.051 75.4046 112.983 75.426 112.917C75.4474 112.852 75.4816 112.792 75.5266 112.74C78.3892 109.259 82.1322 104.967 85.7507 100.815C90.6615 95.1826 95.299 89.8634 95.8807 88.6559C96.574 87.2217 97.0073 85.4534 97.5073 83.4059C98.6115 78.8863 99.9874 73.2637 105.103 67.9737C106.872 66.1441 110.138 64.7332 112.706 65.7221C115.23 66.6948 116.052 69.8885 115.367 72.291C114.713 74.5749 112.363 76.2699 110.473 77.6323L110.116 77.8901C107.747 79.6085 105.147 83.1728 106.209 90.4009C106.54 92.6584 106.168 95.2192 105.183 97.4326C104.174 99.7067 102.616 101.36 100.91 101.974C100.124 102.258 99.4357 102.761 98.9248 103.423C96.9807 105.913 92.2157 113.743 89.1732 120.332C89.1307 120.419 89.0649 120.494 88.9824 120.546C88.8999 120.598 88.804 120.625 88.7065 120.624Z" fill="#14142B"/>
<path d="M99.3966 78.9978H99.3441C99.2091 78.9837 99.085 78.9166 98.9983 78.8112C98.9125 78.7058 98.8725 78.5705 98.8858 78.4352C99.1408 75.9301 100.885 70.3047 104.482 65.8717C106.107 63.8676 109.049 61.9866 111.673 62.5887C113.097 62.9154 115.023 63.8866 115.767 65.5436C116.242 66.6042 116.152 67.7864 115.504 68.9671C115.438 69.0865 115.328 69.1748 115.197 69.2129C115.067 69.251 114.927 69.2356 114.807 69.1701C114.688 69.1046 114.6 68.9945 114.562 68.8638C114.524 68.7331 114.539 68.5927 114.605 68.4735C115.098 67.574 115.174 66.7287 114.832 65.964C114.281 64.7334 112.732 63.8837 111.443 63.5878C109.347 63.1058 106.755 64.6968 105.277 66.5177C102.006 70.5508 100.167 75.9756 99.9066 78.5392C99.8933 78.6651 99.8333 78.7813 99.7391 78.8659C99.645 78.9505 99.5233 78.9975 99.3966 78.9978Z" fill="#14142B"/>
<path d="M107.343 64.5508C107.243 64.5513 107.146 64.5228 107.062 64.4685C106.978 64.4143 106.913 64.3368 106.873 64.2456C106.833 64.1544 106.819 64.0534 106.836 63.9552C106.853 63.8568 106.898 63.7655 106.965 63.6923C110.384 59.9567 113.688 60.8474 114.619 61.2019C116.061 61.763 117.029 62.8998 117.029 64.0308C117.029 64.1668 116.975 64.2972 116.879 64.3933C116.783 64.4895 116.653 64.5435 116.517 64.5435C116.381 64.5435 116.25 64.4895 116.154 64.3933C116.058 64.2972 116.004 64.1668 116.004 64.0308C116.004 63.3305 115.282 62.5658 114.246 62.1586C113.468 61.8568 110.699 61.1228 107.719 64.378C107.673 64.4314 107.614 64.4745 107.549 64.5043C107.484 64.534 107.414 64.5499 107.343 64.5508Z" fill="#14142B"/>
<path d="M111.821 129.194C111.821 129.194 109.312 129.165 107.012 129.305C108.498 130.799 110.083 132.188 111.76 133.464L111.821 129.194Z" fill="#14142B"/>
<path d="M111.76 133.977C111.648 133.976 111.539 133.94 111.449 133.871C109.753 132.58 108.146 131.173 106.643 129.661C106.575 129.591 106.53 129.501 106.511 129.406C106.492 129.31 106.501 129.211 106.537 129.12C106.572 129.029 106.633 128.95 106.711 128.892C106.79 128.835 106.884 128.801 106.981 128.794C109.274 128.655 111.804 128.681 111.829 128.681C111.965 128.684 112.094 128.74 112.191 128.836C112.238 128.885 112.275 128.942 112.3 129.005C112.326 129.067 112.339 129.135 112.337 129.202L112.275 133.471C112.273 133.606 112.218 133.734 112.122 133.828C112.026 133.923 111.898 133.976 111.763 133.977H111.76ZM108.208 129.761C108.89 130.41 109.965 131.381 111.262 132.424L111.301 129.705C110.647 129.705 109.464 129.712 108.208 129.761Z" fill="#14142B"/>
<path d="M137.741 129.192H141.697C140.599 130.45 139.347 131.564 137.97 132.507L137.741 129.192Z" fill="#14142B"/>
<path d="M137.971 133.016C137.842 133.015 137.717 132.966 137.622 132.877C137.528 132.789 137.469 132.667 137.46 132.538L137.23 129.221C137.225 129.151 137.234 129.081 137.258 129.015C137.281 128.948 137.318 128.887 137.366 128.836C137.414 128.785 137.472 128.744 137.537 128.716C137.601 128.688 137.671 128.673 137.741 128.674H141.697C141.793 128.674 141.889 128.702 141.971 128.754C142.053 128.806 142.118 128.881 142.159 128.97C142.201 129.058 142.216 129.156 142.203 129.252C142.191 129.349 142.152 129.44 142.089 129.515C140.962 130.811 139.674 131.957 138.257 132.926C138.172 132.983 138.073 133.015 137.971 133.016ZM138.286 129.705L138.415 131.556C139.158 130.99 139.861 130.371 140.518 129.706L138.286 129.705Z" fill="#14142B"/>
<path d="M125.688 144.634C126.443 144.634 127.055 144.022 127.055 143.267C127.055 142.512 126.443 141.9 125.688 141.9C124.933 141.9 124.322 142.512 124.322 143.267C124.322 144.022 124.933 144.634 125.688 144.634Z" fill="#FF7378"/>
<path d="M125.687 145.147C125.315 145.147 124.951 145.036 124.642 144.829C124.332 144.623 124.091 144.329 123.949 143.984C123.807 143.641 123.77 143.262 123.842 142.897C123.916 142.532 124.095 142.197 124.358 141.934C124.622 141.671 124.957 141.493 125.322 141.42C125.688 141.349 126.067 141.386 126.41 141.529C126.753 141.673 127.047 141.914 127.253 142.224C127.459 142.533 127.569 142.898 127.568 143.27C127.567 143.769 127.367 144.245 127.015 144.597C126.662 144.949 126.185 145.146 125.687 145.147ZM125.687 142.412C125.517 142.411 125.352 142.461 125.212 142.555C125.07 142.649 124.961 142.783 124.896 142.939C124.831 143.095 124.813 143.268 124.847 143.433C124.879 143.6 124.961 143.753 125.081 143.872C125.201 143.992 125.353 144.074 125.519 144.106C125.685 144.139 125.857 144.123 126.014 144.058C126.17 143.993 126.304 143.883 126.397 143.742C126.492 143.601 126.542 143.435 126.541 143.266C126.541 143.039 126.451 142.823 126.291 142.663C126.131 142.502 125.913 142.412 125.687 142.412Z" fill="#FF7378"/>
<path d="M125.688 151.506C126.443 151.506 127.055 150.894 127.055 150.139C127.055 149.384 126.443 148.772 125.688 148.772C124.933 148.772 124.322 149.384 124.322 150.139C124.322 150.894 124.933 151.506 125.688 151.506Z" fill="#FF7378"/>
<path d="M125.687 152.019C125.316 152.019 124.951 151.908 124.643 151.702C124.334 151.496 124.093 151.202 123.951 150.858C123.808 150.515 123.771 150.137 123.843 149.772C123.916 149.408 124.095 149.073 124.358 148.81C124.621 148.547 124.956 148.368 125.321 148.296C125.685 148.223 126.063 148.261 126.406 148.402C126.75 148.545 127.043 148.786 127.25 149.095C127.456 149.404 127.566 149.767 127.566 150.139C127.566 150.637 127.368 151.116 127.016 151.467C126.663 151.82 126.186 152.018 125.687 152.019ZM125.687 149.285C125.518 149.285 125.353 149.335 125.212 149.429C125.072 149.523 124.962 149.657 124.898 149.812C124.833 149.968 124.816 150.14 124.849 150.306C124.882 150.472 124.964 150.623 125.083 150.743C125.202 150.862 125.355 150.944 125.521 150.977C125.686 151.01 125.858 150.993 126.014 150.928C126.17 150.863 126.303 150.754 126.397 150.613C126.491 150.473 126.541 150.308 126.541 150.139C126.541 149.912 126.451 149.696 126.291 149.535C126.131 149.375 125.913 149.285 125.687 149.285Z" fill="#FF7378"/>
<path d="M71.3515 128.081C72.1064 128.081 72.7183 127.468 72.7183 126.714C72.7183 125.959 72.1064 125.347 71.3515 125.347C70.5966 125.347 69.9846 125.959 69.9846 126.714C69.9846 127.468 70.5966 128.081 71.3515 128.081Z" fill="#FF7378"/>
<path d="M71.3486 128.594C71.0019 128.594 70.662 128.498 70.3671 128.315C70.0505 128.12 69.7987 127.836 69.6437 127.498C69.4888 127.16 69.4375 126.784 69.4964 126.417C69.5552 126.049 69.7216 125.709 69.9746 125.436C70.2274 125.164 70.5554 124.972 70.9171 124.886C71.2787 124.8 71.6578 124.823 72.0063 124.953C72.3548 125.082 72.6571 125.312 72.8751 125.613C73.0929 125.914 73.2166 126.273 73.2305 126.644C73.2442 127.016 73.1476 127.384 72.9527 127.7C72.7841 127.974 72.5481 128.199 72.2672 128.356C71.9863 128.513 71.6701 128.594 71.3486 128.594ZM71.3486 125.86C71.2018 125.859 71.0574 125.897 70.9291 125.968C70.8009 126.039 70.6931 126.142 70.6161 126.267C70.5166 126.429 70.4734 126.619 70.4933 126.807C70.5132 126.995 70.5951 127.172 70.7261 127.309C70.8571 127.446 71.0299 127.536 71.2173 127.564C71.4048 127.593 71.5964 127.558 71.7621 127.466C71.9277 127.374 72.0582 127.229 72.1331 127.055C72.2079 126.881 72.2228 126.687 72.1756 126.504C72.1283 126.319 72.0215 126.157 71.8718 126.04C71.7221 125.924 71.5381 125.86 71.3486 125.86Z" fill="#FF7378"/>
<path d="M67.7506 133.935C68.5055 133.935 69.1175 133.324 69.1175 132.569C69.1175 131.814 68.5055 131.202 67.7506 131.202C66.9958 131.202 66.3838 131.814 66.3838 132.569C66.3838 133.324 66.9958 133.935 67.7506 133.935Z" fill="#FF7378"/>
<path d="M67.7474 134.449C67.4008 134.449 67.0609 134.352 66.7659 134.171C66.3789 133.932 66.0909 133.562 65.9554 133.129C65.8198 132.696 65.8457 132.227 66.0283 131.811C66.2109 131.396 66.5379 131.06 66.9488 130.866C67.3597 130.672 67.8268 130.634 68.2639 130.758C68.7009 130.881 69.0783 131.16 69.3264 131.541C69.5745 131.921 69.6764 132.378 69.6135 132.828C69.5506 133.278 69.3269 133.69 68.9839 133.988C68.6409 134.286 68.2018 134.45 67.7474 134.449ZM67.7474 131.713C67.6799 131.714 67.6126 131.721 67.5468 131.737C67.4375 131.762 67.3345 131.81 67.2438 131.876C67.1529 131.941 67.0762 132.025 67.0179 132.121C66.9576 132.216 66.9168 132.323 66.8979 132.434C66.8791 132.546 66.8825 132.66 66.908 132.77C66.9336 132.88 66.9807 132.984 67.0467 133.076C67.1127 133.167 67.1962 133.245 67.2924 133.304C67.3887 133.363 67.4958 133.403 67.6074 133.421C67.719 133.438 67.833 133.433 67.9428 133.406C68.0525 133.38 68.1559 133.331 68.2469 133.264C68.3378 133.197 68.4145 133.113 68.4726 133.016C68.5519 132.886 68.5953 132.738 68.5984 132.586C68.6015 132.435 68.5643 132.286 68.4905 132.153C68.4167 132.021 68.309 131.91 68.1784 131.832C68.0479 131.756 67.8992 131.714 67.7474 131.713Z" fill="#FF7378"/>
<path d="M88.1559 220.045H88.1226C88.0551 220.04 87.9901 220.023 87.9293 219.994C87.8693 219.964 87.8151 219.922 87.7709 219.871C87.7259 219.821 87.6926 219.762 87.6709 219.698C87.6493 219.635 87.6401 219.567 87.6451 219.5C89.8776 185.695 87.6568 171.096 87.6334 170.952C87.6118 170.818 87.6451 170.68 87.7251 170.57C87.8051 170.46 87.9259 170.387 88.0601 170.365C88.1951 170.345 88.3318 170.378 88.4418 170.458C88.5518 170.538 88.6259 170.658 88.6468 170.793C88.6693 170.94 90.9101 185.624 88.6676 219.567C88.6584 219.697 88.6009 219.818 88.5059 219.907C88.4109 219.995 88.2859 220.045 88.1559 220.045Z" fill="#14142B"/>
<path d="M77.8075 110.328C75.5446 109.564 73.2246 108.98 70.8694 108.583C70.8694 108.583 73.2807 111.195 74.6211 112.406C74.7545 112.526 75.2862 112.978 75.3946 113.066L77.8075 110.328Z" fill="#14142B"/>
<path d="M75.395 113.579C75.2771 113.579 75.1626 113.539 75.0712 113.465C74.9628 113.377 74.4237 112.92 74.2772 112.787C72.9353 111.575 70.5928 109.039 70.4932 108.931C70.421 108.852 70.3752 108.752 70.3621 108.647C70.3489 108.541 70.3692 108.433 70.42 108.34C70.4707 108.246 70.5496 108.17 70.6454 108.123C70.7412 108.077 70.8494 108.061 70.9547 108.078C73.3424 108.477 75.694 109.068 77.9865 109.846C78.0653 109.874 78.1362 109.922 78.1927 109.983C78.2492 110.045 78.2897 110.12 78.3106 110.201C78.3316 110.282 78.3323 110.367 78.3128 110.448C78.2934 110.53 78.2542 110.605 78.1989 110.668L75.7861 113.406C75.7372 113.461 75.6768 113.505 75.6093 113.535C75.5418 113.565 75.4687 113.58 75.395 113.579ZM72.3186 109.376C73.1272 110.227 74.223 111.353 74.9657 112.026C75.0272 112.082 75.184 112.218 75.3422 112.352L76.9112 110.572C75.4013 110.096 73.8685 109.697 72.3186 109.376Z" fill="#14142B"/>
<path d="M90.2217 117C90.2217 117 93.0292 118.749 94.8892 121.291C92.78 121.224 90.6942 120.828 88.7075 120.118L90.2217 117Z" fill="#14142B"/>
<path d="M94.8818 121.802C92.7168 121.734 90.5751 121.327 88.536 120.595C88.4676 120.57 88.4051 120.532 88.3526 120.481C88.301 120.431 88.2593 120.37 88.2326 120.302C88.2051 120.236 88.1926 120.164 88.1951 120.092C88.1976 120.02 88.2151 119.949 88.2468 119.885L89.7601 116.77C89.7926 116.706 89.8368 116.649 89.8918 116.602C89.9468 116.557 90.011 116.522 90.0801 116.502C90.1493 116.482 90.2218 116.477 90.2926 116.487C90.3635 116.497 90.4318 116.522 90.4926 116.561C90.6118 116.634 93.4051 118.392 95.3026 120.983C95.3585 121.06 95.3918 121.15 95.4001 121.244C95.4076 121.338 95.3893 121.433 95.3468 121.517C95.3043 121.602 95.2393 121.673 95.1585 121.722C95.0776 121.772 94.9851 121.799 94.891 121.799L94.8818 121.802ZM89.4235 119.812C90.8343 120.263 92.2893 120.564 93.7643 120.709C92.7676 119.6 91.6476 118.608 90.4251 117.753L89.4235 119.812Z" fill="#14142B"/>
<path d="M125.079 105.252C124.974 105.253 124.872 105.221 124.786 105.161C123.713 104.44 122.496 103.962 121.219 103.759C119.942 103.557 118.637 103.635 117.394 103.989C117.329 104.009 117.262 104.015 117.195 104.008C117.127 104.001 117.062 103.981 117.003 103.949C116.944 103.917 116.892 103.874 116.849 103.821C116.807 103.769 116.775 103.709 116.756 103.644C116.737 103.58 116.73 103.512 116.737 103.445C116.744 103.379 116.764 103.314 116.797 103.254C116.828 103.194 116.872 103.143 116.924 103.1C116.976 103.058 117.037 103.026 117.101 103.007C118.49 102.603 119.952 102.512 121.381 102.739C122.809 102.968 124.17 103.509 125.365 104.325C125.456 104.387 125.524 104.476 125.56 104.58C125.596 104.684 125.597 104.797 125.565 104.902C125.532 105.006 125.467 105.098 125.377 105.163C125.289 105.228 125.182 105.262 125.072 105.261L125.079 105.252Z" fill="#14142B"/>
<path d="M109.663 87.2549C109.539 87.2566 109.417 87.2132 109.322 87.1324C109.227 87.0516 109.166 86.9391 109.147 86.8157C109.13 86.6924 109.157 86.5674 109.225 86.4624C109.293 86.3582 109.397 86.2824 109.517 86.2482C111.257 85.7416 112.875 84.8807 114.267 83.7199C114.319 83.6732 114.379 83.6366 114.444 83.6132C114.51 83.5907 114.579 83.5807 114.648 83.5849C114.717 83.5899 114.785 83.6082 114.847 83.6391C114.909 83.6707 114.964 83.7141 115.008 83.7674C115.052 83.8207 115.086 83.8824 115.106 83.9491C115.126 84.0157 115.132 84.0849 115.125 84.1541C115.117 84.2232 115.096 84.2899 115.061 84.3499C115.027 84.4107 114.981 84.4632 114.926 84.5049C113.422 85.7582 111.677 86.6874 109.798 87.2341C109.754 87.2466 109.709 87.2541 109.663 87.2549Z" fill="#14142B"/>
<path d="M130.017 87.2549C129.968 87.2549 129.919 87.2474 129.871 87.2341C127.992 86.6866 126.247 85.7574 124.744 84.5049C124.688 84.4632 124.642 84.4107 124.608 84.3499C124.574 84.2899 124.552 84.2232 124.544 84.1541C124.537 84.0849 124.543 84.0157 124.563 83.9491C124.583 83.8824 124.617 83.8207 124.661 83.7674C124.706 83.7141 124.76 83.6707 124.822 83.6391C124.884 83.6082 124.952 83.5899 125.021 83.5849C125.09 83.5807 125.16 83.5907 125.225 83.6132C125.291 83.6366 125.351 83.6732 125.402 83.7199C126.795 84.8807 128.412 85.7416 130.154 86.2482C130.274 86.2824 130.377 86.3582 130.446 86.4624C130.513 86.5674 130.541 86.6924 130.523 86.8157C130.505 86.9391 130.442 87.0516 130.348 87.1324C130.253 87.2132 130.132 87.2566 130.007 87.2549H130.017Z" fill="#14142B"/>
<path d="M110.891 110.259H101.931L103.08 101.682C103.08 101.682 104.014 104.254 106.71 104.254C106.71 104.254 107.375 108.216 110.891 110.259Z" fill="#14142B"/>
<path d="M110.891 110.771H101.932C101.858 110.771 101.785 110.755 101.719 110.725C101.652 110.695 101.592 110.65 101.544 110.595C101.496 110.539 101.46 110.474 101.439 110.403C101.419 110.333 101.413 110.259 101.424 110.185L102.572 101.608C102.588 101.495 102.64 101.39 102.723 101.311C102.804 101.231 102.911 101.181 103.024 101.169C103.138 101.157 103.253 101.183 103.349 101.243C103.447 101.303 103.521 101.394 103.56 101.501C103.594 101.59 104.419 103.737 106.71 103.737C106.831 103.736 106.949 103.78 107.041 103.857C107.134 103.935 107.195 104.044 107.216 104.163C107.223 104.2 107.897 107.918 111.15 109.81C111.249 109.867 111.324 109.955 111.368 110.059C111.411 110.163 111.419 110.279 111.389 110.388C111.359 110.497 111.295 110.593 111.205 110.662C111.115 110.73 111.006 110.767 110.893 110.767L110.891 110.771ZM102.516 109.746H109.3C107.279 107.988 106.526 105.678 106.293 104.748C105.729 104.698 105.182 104.535 104.684 104.267C104.185 104 103.746 103.633 103.394 103.19L102.516 109.746Z" fill="#14142B"/>
<path d="M115.557 76.508L105.779 83.8917C105.779 83.8917 106.749 79.4965 109.391 77.8001C113.067 75.44 113.408 74.5479 113.408 74.5479L115.557 76.508Z" fill="#14142B"/>
<path d="M105.778 84.4041C105.702 84.4041 105.626 84.3874 105.557 84.3541C105.488 84.3216 105.426 84.2733 105.378 84.2133C105.33 84.1533 105.296 84.0833 105.278 84.0091C105.261 83.9341 105.261 83.8566 105.278 83.7816C105.318 83.5924 106.326 79.158 109.114 77.3679C112.238 75.3623 112.853 74.4818 112.933 74.35C112.955 74.2711 112.998 74.1995 113.058 74.1427C113.116 74.0858 113.189 74.0456 113.268 74.0263C113.355 74.0068 113.446 74.0099 113.531 74.0356C113.616 74.0614 113.693 74.1085 113.753 74.1728L115.902 76.1328C115.957 76.1835 116.001 76.2458 116.03 76.3154C116.059 76.3849 116.072 76.4599 116.068 76.5352C116.065 76.6104 116.046 76.684 116.01 76.7507C115.975 76.8173 115.926 76.8755 115.866 76.921L106.088 84.3041C105.998 84.3699 105.889 84.4049 105.778 84.4041ZM113.48 75.3081C112.99 75.8501 111.936 76.773 109.671 78.2307C108.166 79.1976 107.228 81.1606 106.731 82.5318L114.754 76.4683L113.48 75.3081Z" fill="#14142B"/>
<path d="M157.565 220.044H157.553C157.485 220.043 157.419 220.028 157.357 220.002C157.295 219.974 157.24 219.936 157.194 219.887C157.147 219.838 157.11 219.781 157.086 219.718C157.062 219.656 157.05 219.588 157.051 219.522C157.4 202.943 159.003 189.437 159.53 184.999C159.896 181.913 160.628 180.312 161.833 179.976C163.31 179.558 164.91 181.273 166.28 183.006C172.703 191.124 179.568 194.368 183.67 196.305C185.517 197.183 186.85 197.808 187.539 198.559C187.731 198.77 187.923 198.999 188.125 199.249C189.193 200.55 189.962 201.356 190.872 200.758C191.127 200.58 191.338 200.345 191.485 200.071C192.344 198.568 194.191 197.349 195.979 196.17C197.02 195.483 198.002 194.834 198.752 194.162C205.463 188.147 209.394 183.218 210.942 174.423C213.094 162.202 213.963 142.031 213.076 125.141C204.353 127.482 195.075 126.553 186.987 122.532C186.636 128.392 184.565 162.932 184.214 164.858C183.92 166.444 183.276 167.48 182.436 167.703C181.997 167.818 181.307 167.766 180.542 166.852C180.5 166.8 180.466 166.74 180.446 166.676C180.426 166.612 180.42 166.543 180.425 166.477C180.431 166.409 180.45 166.344 180.482 166.284C180.513 166.225 180.555 166.172 180.608 166.128C180.66 166.085 180.719 166.053 180.784 166.033C180.848 166.013 180.915 166.005 180.983 166.012C181.05 166.018 181.115 166.037 181.175 166.068C181.235 166.099 181.287 166.142 181.33 166.194C181.52 166.421 181.88 166.788 182.175 166.711C182.509 166.623 182.973 165.948 183.2 164.675C183.493 163.073 185.163 135.854 186.005 121.685C186.01 121.6 186.037 121.517 186.083 121.444C186.128 121.372 186.191 121.312 186.266 121.269C186.34 121.228 186.425 121.205 186.51 121.204C186.596 121.203 186.681 121.223 186.757 121.263C194.959 125.566 204.504 126.54 213.406 123.983C213.48 123.961 213.558 123.957 213.635 123.969C213.71 123.982 213.783 124.012 213.846 124.057C213.909 124.101 213.961 124.159 213.999 124.227C214.036 124.294 214.058 124.369 214.062 124.447C215.009 141.533 214.139 162.157 211.948 174.601C210.356 183.644 206.153 188.901 199.431 194.925C198.626 195.648 197.612 196.317 196.54 197.026C194.852 198.139 193.109 199.289 192.372 200.579C192.145 200.994 191.821 201.349 191.43 201.615C189.682 202.765 188.265 201.041 187.328 199.901C187.133 199.665 186.95 199.443 186.775 199.253C186.225 198.648 184.902 198.023 183.226 197.232C179.044 195.258 172.043 191.949 165.47 183.642C164.884 182.909 163.125 180.677 162.1 180.963C161.687 181.079 160.928 181.775 160.537 185.12C160.011 189.545 158.413 203.013 158.064 219.547C158.06 219.678 158.006 219.803 157.914 219.895C157.82 219.988 157.695 220.041 157.565 220.044Z" fill="#14142B"/>
<path d="M203.125 134.664C197.088 134.675 191.156 133.076 185.941 130.031C185.877 130.001 185.819 129.958 185.772 129.904C185.724 129.85 185.689 129.787 185.668 129.719C185.647 129.65 185.64 129.579 185.649 129.507C185.657 129.436 185.679 129.368 185.716 129.306C185.753 129.245 185.801 129.191 185.859 129.15C185.918 129.108 185.983 129.079 186.054 129.065C186.124 129.05 186.196 129.05 186.266 129.065C186.336 129.08 186.402 129.11 186.46 129.153C194.534 133.889 204.377 134.935 213.465 132.024C213.595 131.982 213.735 131.994 213.857 132.056C213.978 132.119 214.069 132.226 214.11 132.355C214.152 132.485 214.14 132.626 214.079 132.747C214.016 132.868 213.909 132.96 213.779 133.001C210.335 134.103 206.741 134.664 203.125 134.664Z" fill="#14142B"/>
<path d="M203.59 151.657C203.101 151.661 202.621 151.524 202.208 151.262C202.101 151.186 202.027 151.071 202.002 150.941C201.977 150.812 202.003 150.678 202.074 150.567C202.145 150.456 202.255 150.376 202.383 150.345C202.511 150.313 202.646 150.331 202.761 150.396C203.639 150.961 204.926 150.433 205.564 149.586C206.279 148.636 206.478 147.336 206.621 146.086C207.054 142.254 207.191 138.394 207.031 134.541C207.028 134.474 207.038 134.406 207.062 134.343C207.084 134.28 207.12 134.221 207.166 134.172C207.211 134.122 207.266 134.082 207.327 134.054C207.388 134.025 207.454 134.009 207.522 134.006C207.589 134.003 207.656 134.014 207.719 134.036C207.782 134.06 207.841 134.096 207.891 134.141C207.94 134.186 207.981 134.241 208.009 134.302C208.037 134.363 208.053 134.43 208.057 134.497C208.219 138.403 208.08 142.316 207.64 146.202C207.482 147.592 207.257 149.047 206.385 150.203C205.752 151.035 204.667 151.657 203.59 151.657Z" fill="#14142B"/>
<path d="M203.093 140.657C203.847 140.657 204.46 140.045 204.46 139.29C204.46 138.535 203.847 137.923 203.093 137.923C202.338 137.923 201.726 138.535 201.726 139.29C201.726 140.045 202.338 140.657 203.093 140.657Z" fill="#FF7378"/>
<path d="M203.093 141.172H203.022C202.528 141.163 202.058 140.959 201.713 140.604C201.369 140.249 201.178 139.774 201.182 139.279C201.187 138.785 201.387 138.313 201.738 137.964C202.089 137.617 202.563 137.422 203.057 137.422C203.552 137.422 204.027 137.617 204.377 137.964C204.728 138.313 204.928 138.785 204.933 139.279C204.937 139.774 204.747 140.249 204.402 140.604C204.057 140.959 203.587 141.163 203.093 141.172ZM203.093 138.437C202.872 138.437 202.66 138.524 202.501 138.677C202.342 138.83 202.248 139.039 202.24 139.26C202.233 139.485 202.316 139.704 202.47 139.869C202.624 140.034 202.837 140.131 203.062 140.139C203.174 140.143 203.287 140.125 203.392 140.086C203.497 140.047 203.593 139.988 203.675 139.911C203.757 139.834 203.824 139.743 203.871 139.641C203.917 139.539 203.943 139.429 203.947 139.316C203.952 139.204 203.934 139.093 203.895 138.987C203.856 138.882 203.797 138.785 203.72 138.704C203.643 138.621 203.552 138.554 203.45 138.508C203.347 138.461 203.237 138.435 203.125 138.431L203.093 138.437Z" fill="#FF7378"/>
<path d="M202.838 147.526C203.593 147.526 204.205 146.915 204.205 146.16C204.205 145.405 203.593 144.793 202.838 144.793C202.083 144.793 201.472 145.405 201.472 146.16C201.472 146.915 202.083 147.526 202.838 147.526Z" fill="#FF7378"/>
<path d="M202.84 148.039H202.769C202.272 148.02 201.801 147.804 201.462 147.439C201.122 147.074 200.942 146.589 200.96 146.092C200.973 145.724 201.095 145.367 201.31 145.067C201.524 144.767 201.822 144.537 202.167 144.405C202.511 144.274 202.887 144.246 203.247 144.326C203.607 144.406 203.935 144.59 204.191 144.856C204.447 145.121 204.619 145.456 204.687 145.819C204.753 146.181 204.712 146.555 204.568 146.895C204.424 147.234 204.183 147.524 203.877 147.728C203.569 147.931 203.208 148.04 202.84 148.04V148.039ZM201.984 146.134C201.977 146.304 202.022 146.47 202.111 146.614C202.199 146.759 202.329 146.873 202.483 146.943C202.637 147.014 202.808 147.036 202.975 147.009C203.142 146.982 203.297 146.905 203.421 146.79C203.544 146.674 203.631 146.524 203.669 146.36C203.707 146.195 203.697 146.023 203.637 145.864C203.577 145.706 203.472 145.569 203.333 145.471C203.196 145.373 203.032 145.318 202.863 145.313C202.638 145.306 202.419 145.389 202.255 145.543C202.091 145.697 201.993 145.909 201.984 146.134Z" fill="#FF7378"/>
<path d="M87.9907 173.801C87.9907 173.801 85.4374 176.054 80.928 180.956C85.6466 179.977 88.1557 178.663 88.1557 178.663L87.9907 173.801Z" fill="#14142B"/>
<path d="M80.9279 181.468C80.8284 181.468 80.7311 181.439 80.6479 181.384C80.5646 181.33 80.499 181.252 80.4591 181.161C80.4192 181.07 80.4066 180.969 80.423 180.871C80.4394 180.773 80.4841 180.682 80.5514 180.608C85.0257 175.743 87.624 173.439 87.6507 173.417C87.7232 173.352 87.8132 173.311 87.909 173.296C88.0049 173.28 88.1032 173.292 88.1924 173.331C88.2815 173.369 88.3574 173.432 88.4124 173.512C88.4674 173.592 88.4982 173.686 88.5015 173.783L88.669 178.645C88.6715 178.742 88.6474 178.837 88.599 178.921C88.5499 179.004 88.479 179.072 88.3932 179.117C88.289 179.172 85.7665 180.475 81.0334 181.461C80.9986 181.467 80.9633 181.469 80.9279 181.468ZM87.5207 174.937C86.5765 175.83 84.8382 177.527 82.4384 180.087C85.2074 179.398 86.9799 178.648 87.6357 178.347L87.5207 174.937Z" fill="#14142B"/>
<path d="M189.829 197.768C189.495 197.771 189.167 197.676 188.886 197.495C188.826 197.46 188.774 197.414 188.733 197.358C188.691 197.302 188.662 197.239 188.646 197.171C188.629 197.104 188.628 197.034 188.639 196.966C188.651 196.898 188.676 196.832 188.714 196.774C188.752 196.716 188.801 196.666 188.859 196.627C188.916 196.589 188.981 196.562 189.049 196.549C189.117 196.536 189.187 196.537 189.254 196.552C189.322 196.567 189.386 196.595 189.443 196.635C189.766 196.844 190.256 196.716 190.574 196.489C190.989 196.183 191.279 195.689 191.559 195.211C191.589 195.147 191.633 195.089 191.687 195.042C191.741 194.994 191.804 194.959 191.872 194.938C191.94 194.917 192.013 194.91 192.084 194.919C192.155 194.927 192.224 194.949 192.285 194.986C192.347 195.023 192.4 195.071 192.442 195.129C192.484 195.188 192.512 195.254 192.527 195.324C192.541 195.394 192.541 195.466 192.525 195.536C192.51 195.606 192.481 195.672 192.439 195.73C192.12 196.27 191.76 196.883 191.177 197.314C190.786 197.601 190.315 197.759 189.829 197.768Z" fill="#14142B"/>
<path d="M202.597 87.1177C202.483 87.1177 202.372 87.0786 202.282 87.0077C202.192 86.9361 202.128 86.8369 202.102 86.7252C202.075 86.6136 202.086 86.4961 202.134 86.3919C202.182 86.2877 202.263 86.2027 202.365 86.1494C202.413 86.1252 207.331 83.5452 210.367 77.1666C211.254 75.3002 212.391 73.2581 214.091 72.259C215.24 71.5995 216.602 71.4194 217.883 71.758C218.887 72.029 219.681 72.6106 220.123 73.3972C220.69 74.3826 220.921 75.5257 220.781 76.6539C220.765 76.7889 220.696 76.9119 220.588 76.9958C220.482 77.0797 220.346 77.1177 220.211 77.1014C220.075 77.0851 219.952 77.0158 219.868 76.9088C219.784 76.8018 219.747 76.6658 219.762 76.5308C219.881 75.6169 219.692 74.6897 219.228 73.8939C218.923 73.3489 218.349 72.9401 217.617 72.7409C216.601 72.4786 215.522 72.6209 214.609 73.1379C213.144 73.995 212.118 75.876 211.292 77.6016C208.1 84.3094 203.045 86.9486 202.831 87.0569C202.759 87.0952 202.679 87.1169 202.597 87.1177Z" fill="#14142B"/>
<path d="M211.253 87.1184C211.134 87.1201 211.018 87.0801 210.926 87.0051C210.833 86.9301 210.77 86.8259 210.746 86.7093C210.723 86.5926 210.74 86.4709 210.797 86.3659C210.853 86.2618 210.943 86.1792 211.053 86.1342C211.094 86.1151 213.655 84.9626 216.658 80.0987C217.671 78.4579 219.072 76.4699 220.945 75.6481C223.261 74.6314 225.665 75.3683 226.792 77.4427C228.292 80.2013 226.44 82.6712 225.29 84.1701L225.252 84.2226C225.213 84.2809 225.161 84.3309 225.101 84.3692C225.041 84.4076 224.974 84.4334 224.904 84.4451C224.834 84.4568 224.763 84.4534 224.693 84.4367C224.625 84.4192 224.56 84.3884 224.503 84.3459C224.449 84.3026 224.403 84.2492 224.37 84.1876C224.337 84.1267 224.316 84.0592 224.309 83.9901C224.303 83.9209 224.31 83.8509 224.331 83.7851C224.352 83.7184 224.387 83.6567 224.432 83.6042C225.831 81.7819 226.994 79.9756 225.887 77.9378C225.025 76.3513 223.16 75.799 221.345 76.593C219.713 77.3094 218.38 79.2475 217.52 80.6422C214.308 85.8484 211.553 87.0384 211.438 87.0884C211.378 87.1093 211.316 87.1201 211.253 87.1184Z" fill="#14142B"/>
<path d="M201.954 101.007C201.884 101.007 201.814 100.993 201.75 100.964C201.688 100.938 201.632 100.899 201.585 100.851C201.539 100.803 201.501 100.745 201.477 100.683C201.452 100.62 201.439 100.553 201.441 100.486C201.442 100.418 201.456 100.352 201.484 100.29C202.846 97.1534 206.055 94.9151 209.469 94.7234C209.605 94.7159 209.739 94.7626 209.84 94.8526C209.942 94.9434 210.003 95.0709 210.011 95.2068C210.019 95.3426 209.972 95.4768 209.881 95.5784C209.791 95.6793 209.664 95.7409 209.528 95.7493C206.49 95.9234 203.635 97.9126 202.424 100.703C202.384 100.794 202.318 100.871 202.234 100.925C202.15 100.979 202.053 101.008 201.954 101.007Z" fill="#14142B"/>
<path d="M192.955 120.71C190.777 120.77 188.615 121.108 186.522 121.717C186.522 121.717 189.287 122.913 192.412 124.178L192.955 120.71Z" fill="#14142B"/>
<path d="M192.412 124.69C192.346 124.689 192.281 124.677 192.22 124.652C189.124 123.401 186.347 122.199 186.319 122.186C186.222 122.144 186.141 122.074 186.086 121.984C186.031 121.894 186.004 121.79 186.011 121.684C186.017 121.579 186.056 121.478 186.122 121.396C186.187 121.313 186.277 121.253 186.377 121.223C188.517 120.6 190.727 120.255 192.955 120.198C193.029 120.198 193.101 120.215 193.167 120.245C193.234 120.276 193.293 120.321 193.342 120.376C193.389 120.432 193.425 120.497 193.446 120.567C193.466 120.637 193.472 120.712 193.461 120.784L192.919 124.252C192.907 124.328 192.878 124.401 192.834 124.464C192.79 124.527 192.732 124.58 192.665 124.618C192.588 124.663 192.501 124.688 192.412 124.69ZM188.107 121.836C189.083 122.251 190.486 122.838 192.006 123.457L192.352 121.242C190.923 121.324 189.504 121.522 188.107 121.836Z" fill="#14142B"/>
<path d="M208.604 121.717C208.604 121.717 211.928 122.838 213.559 124.475C213.559 124.475 212.067 124.956 208.604 125.536V121.717Z" fill="#14142B"/>
<path d="M208.604 126.048C208.468 126.048 208.337 125.994 208.241 125.898C208.145 125.802 208.091 125.671 208.091 125.535V121.716C208.091 121.635 208.11 121.554 208.148 121.483C208.185 121.41 208.239 121.348 208.305 121.3C208.371 121.253 208.448 121.222 208.528 121.21C208.609 121.198 208.69 121.205 208.768 121.231C208.915 121.278 212.225 122.403 213.921 124.113C213.984 124.175 214.029 124.253 214.052 124.337C214.075 124.422 214.077 124.511 214.056 124.596C214.036 124.681 213.994 124.76 213.935 124.824C213.875 124.888 213.8 124.936 213.716 124.963C213.654 124.983 212.149 125.462 208.689 126.041C208.66 126.045 208.632 126.048 208.604 126.048ZM209.116 122.456V124.928C210.684 124.652 211.791 124.406 212.486 124.233C211.387 123.421 209.945 122.787 209.112 122.456H209.116Z" fill="#14142B"/>
<path d="M118.021 203.184C118.46 203.184 118.817 202.828 118.817 202.389C118.817 201.949 118.46 201.593 118.021 201.593C117.582 201.593 117.226 201.949 117.226 202.389C117.226 202.828 117.582 203.184 118.021 203.184Z" fill="#14142B"/>
<path d="M118.021 203.697C117.762 203.697 117.509 203.619 117.294 203.476C117.079 203.332 116.912 203.128 116.812 202.889C116.713 202.65 116.687 202.387 116.738 202.133C116.788 201.879 116.913 201.646 117.096 201.464C117.279 201.28 117.512 201.156 117.766 201.105C118.019 201.054 118.282 201.081 118.522 201.179C118.761 201.279 118.965 201.446 119.109 201.662C119.252 201.877 119.329 202.129 119.329 202.389C119.329 202.735 119.191 203.068 118.946 203.313C118.7 203.559 118.367 203.696 118.021 203.697ZM118.021 202.105C117.965 202.105 117.911 202.122 117.864 202.154C117.817 202.184 117.781 202.229 117.76 202.28C117.738 202.332 117.732 202.389 117.743 202.444C117.755 202.499 117.782 202.549 117.821 202.589C117.861 202.628 117.911 202.654 117.966 202.665C118.021 202.677 118.077 202.671 118.129 202.649C118.181 202.628 118.225 202.592 118.256 202.545C118.287 202.499 118.304 202.444 118.304 202.389C118.303 202.314 118.273 202.242 118.221 202.189C118.167 202.136 118.096 202.106 118.021 202.105Z" fill="#14142B"/>
<path d="M49.6524 202.256H23.4426C22.9782 202.256 22.6018 202.633 22.6018 203.098V225.734C22.6018 226.198 22.9782 226.575 23.4426 226.575H49.6524C50.1168 226.575 50.4932 226.198 50.4932 225.734V203.098C50.4932 202.633 50.1168 202.256 49.6524 202.256Z" fill="#84D7FF"/>
<path d="M49.6554 227.086H23.4442C23.0851 227.086 22.7406 226.943 22.4865 226.689C22.2324 226.436 22.0895 226.092 22.0891 225.732V203.097C22.0895 202.738 22.2324 202.393 22.4865 202.14C22.7406 201.886 23.0851 201.743 23.4442 201.743H49.6554C50.0143 201.744 50.3584 201.886 50.6121 202.14C50.8659 202.394 51.0086 202.738 51.009 203.097V225.732C51.0086 226.091 50.8659 226.435 50.6121 226.689C50.3584 226.942 50.0143 227.086 49.6554 227.086ZM23.4457 202.767C23.4024 202.767 23.3596 202.776 23.3197 202.792C23.2797 202.808 23.2434 202.832 23.2127 202.863C23.1821 202.893 23.1578 202.93 23.1412 202.97C23.1246 203.01 23.1161 203.052 23.1161 203.096V225.731C23.1161 225.774 23.1246 225.817 23.1412 225.857C23.1578 225.897 23.1821 225.932 23.2127 225.963C23.2434 225.994 23.2797 226.018 23.3197 226.034C23.3596 226.051 23.4024 226.059 23.4457 226.059H49.6554C49.7424 226.059 49.8259 226.024 49.8874 225.962C49.9489 225.902 49.9835 225.817 49.9835 225.731V203.097C49.9835 203.01 49.9489 202.927 49.8874 202.865C49.8259 202.803 49.7424 202.769 49.6554 202.769L23.4457 202.767Z" fill="#84D7FF"/>
<path d="M36.5482 224.341C42.0305 224.341 46.4747 219.897 46.4747 214.415C46.4747 208.932 42.0305 204.488 36.5482 204.488C31.0658 204.488 26.6216 208.932 26.6216 214.415C26.6216 219.897 31.0658 224.341 36.5482 224.341Z" fill="#FF7378"/>
<path d="M36.5485 224.853C34.4837 224.853 32.4653 224.241 30.7486 223.094C29.0317 221.947 27.6937 220.316 26.9037 218.408C26.1136 216.501 25.9069 214.402 26.3098 212.377C26.7127 210.352 27.7072 208.492 29.1672 207.032C30.6274 205.572 32.4877 204.577 34.5127 204.175C36.5379 203.772 38.6369 203.979 40.5445 204.77C42.452 205.56 44.0822 206.898 45.2292 208.615C46.3761 210.332 46.9881 212.351 46.9878 214.416C46.9843 217.183 45.8833 219.836 43.9262 221.792C41.9692 223.749 39.316 224.85 36.5485 224.853ZM36.5485 205.002C34.6866 205.002 32.8665 205.553 31.3184 206.588C29.7703 207.622 28.5637 209.092 27.8512 210.812C27.1387 212.533 26.9522 214.426 27.3155 216.252C27.6787 218.078 28.5753 219.756 29.8918 221.072C31.2084 222.388 32.8858 223.285 34.7119 223.648C36.538 224.012 38.4308 223.825 40.151 223.112C41.8712 222.4 43.3414 221.193 44.3758 219.646C45.4102 218.097 45.9623 216.277 45.9623 214.416C45.9597 211.919 44.9669 209.527 43.2021 207.762C41.4372 205.997 39.0443 205.004 36.5485 205.002Z" fill="#FF7378"/>
<path d="M36.5484 207.876C36.4124 207.876 36.282 207.822 36.1858 207.726C36.0896 207.629 36.0356 207.5 36.0356 207.364V205.992C36.0356 205.856 36.0896 205.726 36.1858 205.629C36.282 205.534 36.4124 205.479 36.5484 205.479C36.6843 205.479 36.8147 205.534 36.9109 205.629C37.0071 205.726 37.0611 205.856 37.0611 205.992V207.364C37.0611 207.5 37.0071 207.629 36.9109 207.726C36.8147 207.822 36.6843 207.876 36.5484 207.876Z" fill="#14142B"/>
<path d="M36.5484 223.355C36.4124 223.355 36.282 223.301 36.1858 223.204C36.0896 223.108 36.0356 222.977 36.0356 222.841V221.47C36.0356 221.335 36.0896 221.204 36.1858 221.108C36.282 221.011 36.4124 220.958 36.5484 220.958C36.6843 220.958 36.8147 221.011 36.9109 221.108C37.0071 221.204 37.0611 221.335 37.0611 221.47V222.841C37.0611 222.977 37.0071 223.108 36.9109 223.204C36.8147 223.301 36.6843 223.355 36.5484 223.355Z" fill="#14142B"/>
<path d="M44.9753 214.928H43.6055C43.4695 214.928 43.3391 214.874 43.243 214.778C43.1469 214.682 43.0928 214.552 43.0928 214.416C43.0928 214.279 43.1469 214.149 43.243 214.052C43.3391 213.957 43.4695 213.902 43.6055 213.902H44.9753C45.1113 213.902 45.2417 213.957 45.3379 214.052C45.434 214.149 45.488 214.279 45.488 214.416C45.488 214.552 45.434 214.682 45.3379 214.778C45.2417 214.874 45.1113 214.928 44.9753 214.928Z" fill="#14142B"/>
<path d="M29.4933 214.928H28.1207C27.9847 214.928 27.8542 214.874 27.7581 214.778C27.6619 214.682 27.6079 214.552 27.6079 214.416C27.6079 214.279 27.6619 214.149 27.7581 214.052C27.8542 213.957 27.9847 213.902 28.1207 213.902H29.4918C29.6278 213.902 29.7582 213.957 29.8544 214.052C29.9506 214.149 30.0046 214.279 30.0046 214.416C30.0046 214.552 29.9506 214.682 29.8544 214.778C29.7582 214.874 29.6278 214.928 29.4918 214.928H29.4933Z" fill="#14142B"/>
<path d="M36.5483 214.928C36.4753 214.928 36.403 214.912 36.3365 214.882C36.2701 214.852 36.2109 214.807 36.163 214.752L32.1608 210.191C32.1163 210.14 32.0823 210.081 32.0605 210.017C32.0389 209.953 32.0299 209.886 32.0343 209.819C32.0386 209.752 32.0562 209.686 32.0859 209.626C32.1157 209.565 32.157 209.511 32.2076 209.467C32.2582 209.422 32.3171 209.388 32.3809 209.366C32.4446 209.345 32.5119 209.336 32.5792 209.34C32.6464 209.345 32.712 209.362 32.7724 209.392C32.8329 209.422 32.8869 209.463 32.9313 209.513L36.4194 213.489L38.2491 209.634C38.3102 209.516 38.4148 209.426 38.5408 209.383C38.6668 209.341 38.8043 209.349 38.9244 209.406C39.0445 209.463 39.1378 209.565 39.1845 209.689C39.2313 209.813 39.2279 209.952 39.175 210.073L37.0113 214.636C36.9755 214.714 36.9209 214.782 36.8523 214.833C36.7837 214.884 36.7034 214.917 36.6186 214.93C36.5952 214.931 36.5717 214.93 36.5483 214.928Z" fill="#14142B"/>
<path d="M176.417 227.628H20.4293C20.2933 227.628 20.1628 227.574 20.0667 227.478C19.9705 227.382 19.9165 227.251 19.9165 227.115C19.9165 226.979 19.9705 226.849 20.0667 226.753C20.1628 226.657 20.2933 226.603 20.4293 226.603H176.417C176.553 226.603 176.684 226.657 176.78 226.753C176.876 226.849 176.93 226.979 176.93 227.115C176.93 227.251 176.876 227.382 176.78 227.478C176.684 227.574 176.553 227.628 176.417 227.628Z" fill="#14142B"/>
<path d="M227.393 212.542C226.522 212.545 225.688 212.892 225.073 213.508C224.458 214.124 224.111 214.958 224.108 215.828V217.911C224.111 218.781 224.458 219.615 225.073 220.23C225.688 220.846 226.523 221.193 227.393 221.195H228.883V212.542H227.393Z" fill="#FF7378"/>
<path d="M228.883 221.708H227.393C226.387 221.705 225.423 221.304 224.711 220.593C223.999 219.881 223.599 218.917 223.595 217.911V215.828C223.599 214.822 223.999 213.857 224.71 213.145C225.422 212.433 226.386 212.033 227.393 212.029H228.883C229.019 212.029 229.149 212.083 229.245 212.179C229.341 212.275 229.395 212.406 229.395 212.542V221.195C229.395 221.263 229.382 221.329 229.357 221.392C229.331 221.454 229.294 221.511 229.245 221.558C229.198 221.606 229.141 221.643 229.079 221.669C229.017 221.695 228.95 221.708 228.883 221.708ZM227.393 213.054C226.659 213.058 225.954 213.351 225.435 213.87C224.916 214.39 224.624 215.093 224.621 215.828V217.911C224.622 218.646 224.914 219.35 225.434 219.87C225.954 220.389 226.658 220.682 227.393 220.683H228.369V213.054H227.393Z" fill="#FF7378"/>
<path d="M229.577 227.496C229.441 227.496 229.31 227.442 229.214 227.346C229.118 227.25 229.064 227.119 229.064 226.983V206.755C229.064 206.619 229.118 206.488 229.214 206.392C229.31 206.296 229.441 206.242 229.577 206.242C229.713 206.242 229.843 206.296 229.939 206.392C230.036 206.488 230.089 206.619 230.089 206.755V226.983C230.089 227.051 230.076 227.117 230.05 227.18C230.025 227.241 229.987 227.298 229.939 227.346C229.892 227.393 229.835 227.431 229.773 227.457C229.711 227.482 229.644 227.496 229.577 227.496Z" fill="#14142B"/>
<path d="M154.28 222.273H94.8895C94.7536 222.273 94.6228 222.219 94.5269 222.123C94.4303 222.027 94.377 221.896 94.377 221.761C94.377 221.625 94.4303 221.494 94.5269 221.398C94.6228 221.301 94.7536 221.248 94.8895 221.248H154.28C154.417 221.248 154.547 221.301 154.643 221.398C154.739 221.494 154.794 221.625 154.794 221.761C154.794 221.896 154.739 222.027 154.643 222.123C154.547 222.219 154.417 222.273 154.28 222.273Z" fill="#14142B"/>
</svg>
